<?xml version="1.0" encoding="UTF-8"?>
<svg xmlns="http://www.w3.org/2000/svg" xmlns:xlink="http://www.w3.org/1999/xlink" width="120px" height="px" viewBox="0 0 120 33" version="1.1">
<defs>
<radialGradient id="radial0" gradientUnits="userSpaceOnUse" cx="0" cy="0" fx="0" fy="0" r="1" gradientTransform="matrix(32.828854,0,0,32.901807,1.490744,6.024737)">
<stop offset="0" style="stop-color:rgb(12.54902%,76.862745%,95.686275%);stop-opacity:1;"/>
<stop offset="0.305" style="stop-color:rgb(3.529412%,70.588235%,94.117647%);stop-opacity:1;"/>
<stop offset="0.5" style="stop-color:rgb(0%,68.235294%,93.72549%);stop-opacity:1;"/>
<stop offset="0.8" style="stop-color:rgb(0%,57.254902%,78.431373%);stop-opacity:1;"/>
<stop offset="1" style="stop-color:rgb(0%,43.137255%,59.607843%);stop-opacity:1;"/>
</radialGradient>
</defs>
<g id="surface1">
<path style=" stroke:none;fill-rule:nonzero;fill:rgb(0%,68.235294%,93.72549%);fill-opacity:1;" d="M 39.296875 23.042969 L 34.648438 23.042969 C 35.25 22.496094 35.414062 20.523438 35.632812 16.960938 L 35.683594 16.140625 L 35.902344 11.480469 C 35.902344 10.550781 35.792969 9.949219 35.519531 9.726562 L 40.714844 9.726562 C 41.972656 9.726562 44.433594 9.78125 44.433594 12.359375 C 44.433594 14.113281 42.835938 15.152344 41.371094 15.539062 C 43.449219 15.703125 44.992188 16.742188 44.992188 18.878906 C 45.042969 21.179688 42.859375 23.046875 39.304688 23.046875 M 39.140625 16.582031 L 38.210938 16.582031 L 38.046875 18.554688 L 37.9375 21.019531 C 37.9375 21.128906 38.320312 21.40625 39.191406 21.40625 C 41.050781 21.40625 42.253906 20.472656 42.253906 18.9375 C 42.308594 17.238281 40.832031 16.589844 39.136719 16.589844 M 39.523438 11.332031 C 39.25 11.332031 38.921875 11.332031 38.59375 11.382812 C 38.429688 12.316406 38.375 13.191406 38.320312 14.234375 L 38.265625 15 L 38.59375 15 C 40.289062 15 41.820312 14.398438 41.820312 12.863281 C 41.871094 11.988281 41.109375 11.328125 39.523438 11.328125 M 55.917969 23.167969 C 54.765625 23.167969 54.660156 23.113281 53.785156 19.988281 L 53.457031 18.835938 C 52.910156 19.109375 51.925781 19.21875 50.394531 19.21875 L 48.796875 19.21875 L 48.523438 19.824219 C 48.25 20.425781 47.59375 21.6875 47.59375 22.453125 C 47.589844 22.65625 47.609375 22.859375 47.648438 23.054688 L 44.476562 23.054688 C 45.351562 22.179688 46.554688 20.042969 48.140625 16.65625 L 49.070312 14.679688 L 50.820312 10.570312 C 50.820312 10.296875 50.765625 10.078125 50.65625 9.800781 L 53.554688 9.800781 L 54.976562 15.0625 L 55.523438 17.144531 C 56.507812 20.707031 57.160156 22.402344 57.929688 23.0625 L 55.90625 23.171875 M 51.75 12.871094 L 49.5625 17.527344 L 53.0625 17.527344 Z M 68.484375 23.613281 C 67.5 23.613281 67.28125 23.449219 66.953125 23.007812 L 63.179688 17.855469 C 62.90625 17.429688 62.632812 17.144531 62.195312 17.144531 L 62.144531 17.144531 L 62.089844 18.183594 L 61.925781 21.472656 C 61.925781 22.351562 62.035156 22.898438 62.308594 23.117188 L 58.691406 23.117188 C 59.238281 22.6875 59.402344 21.140625 59.726562 17.03125 L 59.78125 16.210938 L 60 11.554688 C 60 10.621094 59.890625 10.019531 59.617188 9.800781 L 64.484375 9.800781 C 66.121094 9.800781 68.257812 10.074219 68.257812 12.648438 C 68.257812 14.785156 66.835938 15.9375 65.085938 16.484375 C 65.316406 16.726562 65.535156 16.984375 65.738281 17.253906 L 68.417969 20.816406 C 70.113281 23.0625 70.222656 23.164062 70.824219 23.445312 C 70.050781 23.554688 69.265625 23.609375 68.484375 23.609375 M 63.671875 11.390625 C 63.34375 11.390625 62.960938 11.390625 62.632812 11.441406 C 62.523438 11.992188 62.46875 12.976562 62.359375 14.566406 L 62.304688 15.5 C 62.46875 15.550781 62.730469 15.550781 62.90625 15.550781 C 64.546875 15.550781 65.695312 14.511719 65.695312 13.03125 C 65.644531 11.988281 64.929688 11.386719 63.671875 11.386719 M 75.550781 23.320312 C 72.105469 23.320312 70.136719 20.46875 70.136719 17.34375 C 70.136719 12.96875 72.542969 9.507812 77.082031 9.507812 C 78.503906 9.507812 79.160156 9.78125 80.363281 9.78125 L 80.035156 13.179688 C 79.378906 11.972656 78.285156 11.207031 76.863281 11.207031 C 74.019531 11.207031 72.871094 14.273438 72.871094 16.90625 C 72.871094 19.753906 74.507812 21.34375 76.589844 21.34375 C 77.738281 21.34375 78.777344 21.070312 80.46875 19.863281 C 79.757812 21.945312 78.175781 23.316406 75.550781 23.316406 M 98.953125 23.152344 C 97.804688 23.152344 97.75 23.097656 96.820312 19.972656 L 96.492188 18.820312 C 95.945312 19.09375 94.960938 19.203125 93.429688 19.203125 L 91.789062 19.203125 L 91.515625 19.804688 C 91.089844 20.683594 90.585938 21.722656 90.585938 22.4375 C 90.585938 22.601562 90.640625 22.820312 90.640625 23.039062 L 81.234375 23.039062 C 81.78125 22.4375 81.945312 20.464844 82.21875 16.957031 L 82.273438 16.136719 L 82.492188 11.476562 C 82.492188 10.601562 82.382812 9.996094 82.164062 9.722656 L 85.828125 9.722656 C 85.28125 10.105469 85.117188 12.246094 84.898438 15.804688 L 84.847656 16.628906 L 84.570312 20.574219 C 84.570312 21.175781 84.789062 21.339844 85.449219 21.339844 C 87.6875 21.339844 88.179688 21.289062 89.21875 20.628906 C 89.875 19.476562 90.53125 18.054688 91.242188 16.574219 L 92.171875 14.601562 L 93.921875 10.492188 C 93.921875 10.214844 93.867188 9.996094 93.757812 9.722656 L 96.644531 9.722656 L 98.066406 14.980469 L 98.613281 17.0625 C 99.597656 20.628906 100.210938 22.324219 101.074219 22.984375 C 100.367188 23.078125 99.65625 23.132812 98.941406 23.148438 M 94.785156 12.84375 L 92.65625 17.503906 L 96.097656 17.503906 Z M 107.253906 15.859375 L 106.324219 17.613281 C 106.105469 18.601562 106.050781 19.914062 106.050781 21.339844 C 106.050781 21.941406 106.160156 22.765625 106.433594 23.039062 L 102.816406 23.039062 C 103.472656 22.433594 103.691406 18.761719 103.691406 17.558594 C 103.199219 15.914062 102.539062 14.269531 101.558594 12.296875 C 100.902344 11.09375 100.191406 9.949219 99.699219 9.722656 L 102.039062 9.613281 C 102.917969 9.613281 103.191406 9.722656 103.734375 10.929688 L 105.59375 15.421875 L 107.9375 11.640625 C 108.101562 11.3125 108.320312 10.871094 108.320312 10.488281 C 108.320312 10.214844 108.265625 9.832031 108.15625 9.71875 L 111.710938 9.71875 C 110.945312 9.882812 107.882812 14.761719 107.226562 15.859375 M 119.257812 12.84375 C 118.710938 11.855469 117.507812 11.089844 116.195312 11.089844 C 115.042969 11.089844 114.0625 11.515625 114.0625 12.734375 C 114.0625 13.773438 115.320312 14.429688 116.632812 15.308594 C 118.054688 16.183594 119.53125 17.28125 119.53125 19.199219 C 119.53125 21.664062 117.125 23.253906 114.28125 23.253906 C 113.132812 23.253906 111.941406 23.035156 110.5625 22.539062 L 110.78125 19.253906 C 111.4375 20.566406 112.640625 21.601562 114.445312 21.601562 C 115.8125 21.601562 116.90625 20.941406 116.90625 19.734375 C 116.90625 18.75 116.085938 18.09375 115.046875 17.488281 C 112.859375 16.171875 111.492188 15.140625 111.492188 13.214844 C 111.492188 10.367188 113.832031 9.433594 116.359375 9.433594 C 117.78125 9.433594 118.699219 9.707031 119.582031 9.707031 Z M 119.257812 12.84375 "/>
<path style=" stroke:none;fill-rule:nonzero;fill:url(#radial0);" d="M 29.378906 7.316406 C 29.085938 6.632812 28.601562 5.855469 27.726562 5.269531 C 27.339844 4.980469 26.851562 4.6875 26.367188 4.492188 C 25.976562 4.386719 25.589844 4.296875 25.101562 4.296875 L 24.996094 4.296875 C 24.414062 4.296875 23.34375 4.402344 22.761719 5.269531 C 22.46875 5.5625 22.371094 6.148438 22.46875 6.632812 C 22.574219 7.023438 22.859375 7.414062 23.246094 7.511719 C 23.328125 7.578125 23.433594 7.613281 23.539062 7.609375 C 23.539062 7.714844 23.433594 7.902344 23.433594 7.902344 C 23.140625 8.191406 22.65625 8.679688 21.195312 8.679688 L 21.089844 8.679688 C 20.3125 8.574219 19.730469 8.386719 18.855469 7.511719 C 18.367188 6.925781 18.078125 5.855469 18.078125 4.199219 C 18.078125 3.320312 17.972656 2.640625 17.785156 2.066406 C 17.679688 1.675781 17.300781 1.285156 17.007812 1.089844 C 16.71875 0.894531 16.523438 0.796875 16.035156 0.601562 L 14.386719 0.410156 C 13.800781 0.410156 13.414062 0.515625 13.21875 0.796875 L 12.632812 0.796875 C 12.34375 0.796875 11.953125 0.90625 11.664062 0.90625 C 11.078125 1.011719 10.691406 1.292969 10.300781 1.585938 C 10.195312 1.695312 9.816406 2.074219 9.71875 2.464844 C 9.71875 2.757812 9.824219 3.046875 9.824219 3.148438 L 9.933594 3.253906 C 10.125 3.058594 10.515625 2.960938 11 2.960938 C 11.683594 2.960938 12.652344 3.253906 12.847656 3.738281 C 13.335938 4.519531 13.140625 5.105469 13.140625 5.785156 C 12.847656 7.636719 12.167969 8.511719 10.707031 8.707031 C 10.417969 8.816406 10.125 8.816406 9.933594 8.816406 C 8.863281 8.816406 8.085938 8.523438 7.695312 7.839844 L 7.695312 7.644531 C 7.695312 7.644531 7.804688 7.644531 7.890625 7.539062 C 8.28125 7.34375 8.574219 7.050781 8.667969 6.664062 C 8.773438 6.175781 8.667969 5.6875 8.375 5.296875 C 7.792969 4.714844 7.015625 4.324219 6.140625 4.324219 C 5.558594 4.324219 5.167969 4.429688 4.78125 4.519531 C 3.613281 4.8125 2.546875 5.785156 1.769531 7.34375 C 1.183594 8.515625 0.796875 9.878906 0.699219 11.4375 C 0.601562 12.996094 0.59375 14.261719 0.699219 15.429688 C 0.804688 17.378906 1.1875 18.546875 1.671875 19.804688 C 2.15625 21.0625 2.734375 22.238281 3.417969 23.3125 C 3.613281 23.605469 3.707031 23.898438 3.902344 24.09375 L 4.011719 23.984375 C 4.117188 23.878906 4.203125 23.789062 4.300781 23.597656 C 4.691406 23.304688 5.371094 22.332031 5.566406 22.039062 C 5.761719 21.746094 6.050781 21.261719 6.246094 20.773438 L 6.351562 20.578125 L 6.546875 20.683594 C 6.742188 20.878906 6.839844 21.171875 6.839844 21.464844 C 6.839844 21.753906 6.734375 22.046875 6.546875 22.632812 C 6.351562 23.316406 5.964844 24.09375 5.574219 24.871094 C 5.683594 24.980469 5.683594 25.164062 5.574219 25.164062 C 5.285156 25.652344 5.285156 25.847656 5.285156 26.042969 L 5.390625 26.042969 C 5.496094 26.042969 5.878906 25.933594 6.167969 25.652344 C 6.460938 25.457031 7.238281 24.777344 8.207031 23.414062 C 8.984375 22.4375 9.472656 21.367188 10.054688 20.199219 L 10.160156 20.003906 L 10.355469 20.109375 C 10.464844 20.214844 10.550781 20.214844 10.648438 20.304688 C 10.753906 20.5 10.753906 20.792969 10.753906 21.082031 C 10.648438 21.863281 10.171875 22.933594 9.878906 23.714844 C 9.296875 25.078125 8.226562 26.539062 7.449219 27.609375 C 7.429688 27.679688 7.390625 27.742188 7.339844 27.792969 C 7.289062 27.84375 7.226562 27.878906 7.15625 27.902344 C 7.265625 28.007812 7.351562 28.097656 7.546875 28.195312 L 7.839844 28.488281 C 8.859375 29.34375 9.96875 30.09375 11.140625 30.726562 C 12.113281 31.3125 14.058594 32.285156 15.417969 32.675781 C 16.777344 32.382812 18.722656 31.3125 19.695312 30.726562 C 20.867188 30.09375 21.976562 29.34375 23 28.488281 L 23.289062 28.195312 C 23.484375 28.085938 23.582031 27.902344 23.679688 27.902344 C 23.785156 27.707031 23.785156 27.609375 23.785156 27.511719 L 23.679688 27.40625 C 22.902344 26.429688 21.832031 24.871094 21.25 23.507812 C 20.957031 22.730469 20.472656 21.660156 20.375 20.878906 C 20.265625 20.585938 20.375 20.292969 20.480469 20.101562 L 20.675781 19.90625 C 20.78125 19.796875 20.964844 19.796875 20.964844 19.796875 L 21.074219 19.992188 C 21.65625 21.164062 22.238281 22.234375 22.921875 23.207031 C 23.890625 24.570312 24.667969 25.253906 24.960938 25.449219 C 25.253906 25.742188 25.542969 25.839844 25.738281 25.839844 L 25.84375 25.839844 C 25.949219 25.730469 25.84375 25.546875 25.550781 25.058594 C 25.445312 24.953125 25.445312 24.863281 25.445312 24.765625 C 25.058594 23.988281 24.667969 23.210938 24.472656 22.527344 C 24.28125 21.941406 24.183594 21.550781 24.183594 21.359375 C 24.183594 21.066406 24.289062 20.773438 24.472656 20.578125 L 24.667969 20.472656 L 24.777344 20.667969 C 24.96875 21.15625 25.359375 21.738281 25.550781 22.03125 C 25.746094 22.324219 26.523438 23.199219 26.71875 23.492188 C 26.914062 23.6875 27.011719 23.785156 27.011719 23.882812 L 27.117188 23.988281 C 27.222656 23.882812 27.3125 23.695312 27.507812 23.304688 L 27.613281 23.199219 C 28.195312 22.226562 28.777344 20.957031 29.265625 19.691406 C 29.75 18.523438 30.042969 17.257812 30.238281 15.316406 C 30.34375 14.148438 30.429688 12.882812 30.238281 11.324219 C 30.34375 9.863281 29.945312 8.402344 29.460938 7.332031 Z M 29.378906 7.316406 "/>
</g>
</svg>
