<?xml version="1.0" encoding="UTF-8"?>
<svg xmlns="http://www.w3.org/2000/svg" xmlns:xlink="http://www.w3.org/1999/xlink" width="120px" height="px" viewBox="0 0 119 32" version="1.1">
<defs>
<linearGradient id="linear0" gradientUnits="userSpaceOnUse" x1="145.004" y1="8.45367" x2="145.004" y2="44.9336" >
<stop offset="0" style="stop-color:rgb(96.862745%,90.980392%,18.823529%);stop-opacity:1;"/>
<stop offset="1" style="stop-color:rgb(99.215686%,79.607843%,2.352941%);stop-opacity:1;"/>
</linearGradient>
<radialGradient id="radial0" gradientUnits="userSpaceOnUse" cx="0" cy="0" fx="0" fy="0" r="1" gradientTransform="matrix(29.6723,0,0,29.6723,144.798,25.0966)">
<stop offset="0.596" style="stop-color:rgb(94.901961%,58.039216%,1.960784%);stop-opacity:1;"/>
<stop offset="0.736" style="stop-color:rgb(96.862745%,81.568627%,11.764706%);stop-opacity:1;"/>
<stop offset="1" style="stop-color:rgb(99.215686%,79.607843%,2.352941%);stop-opacity:1;"/>
</radialGradient>
<linearGradient id="linear1" gradientUnits="userSpaceOnUse" x1="155.164" y1="9.7748" x2="155.174" y2="11.5023" >
<stop offset="0" style="stop-color:rgb(98.039216%,85.490196%,10.980392%);stop-opacity:1;"/>
<stop offset="1" style="stop-color:rgb(99.215686%,79.607843%,2.352941%);stop-opacity:1;"/>
</linearGradient>
<linearGradient id="linear2" gradientUnits="userSpaceOnUse" x1="134.829" y1="9.68512" x2="134.819" y2="11.4126" >
<stop offset="0" style="stop-color:rgb(98.039216%,85.490196%,10.980392%);stop-opacity:1;"/>
<stop offset="1" style="stop-color:rgb(99.215686%,79.607843%,2.352941%);stop-opacity:1;"/>
</linearGradient>
</defs>
<g id="surface1">
<path style="fill-rule:nonzero;fill:url(#linear0);stroke-width:0.103177;stroke-linecap:butt;stroke-linejoin:miter;stroke:rgb(98.823529%,81.960784%,3.529412%);stroke-opacity:1;stroke-miterlimit:4;" d="M 167.117647 8.640747 C 167.095588 8.580322 167.079044 8.514404 167.051471 8.453979 C 152.349265 8.459473 137.652574 8.453979 122.955882 8.459473 C 122.917279 8.503418 122.895221 8.547363 122.889706 8.602295 C 122.889706 20.006104 122.889706 31.398926 122.878676 42.802734 C 122.972426 43.406982 123.308824 43.961792 123.755515 44.379272 C 123.777574 44.384766 123.816176 44.390259 123.838235 44.395752 C 124.064338 44.637451 124.395221 44.758301 124.704044 44.868164 C 124.935662 44.857178 125.15625 44.956055 125.387868 44.928589 L 143.636029 44.928589 C 143.806985 44.923096 143.988971 44.956055 144.154412 44.884644 C 144.165441 44.862671 144.170956 44.818726 144.176471 44.79126 C 144.181985 44.763794 144.1875 44.692383 144.193015 44.653931 C 144.584559 42.473145 144.965074 40.281372 145.378676 38.095093 L 145.417279 37.814941 C 143.729779 37.809448 142.03125 37.814941 140.34375 37.809448 C 139.935662 37.798462 139.516544 37.809448 139.102941 37.76001 C 138.402574 37.732544 137.696691 37.754517 136.996324 37.688599 C 136.125 37.688599 135.264706 37.606201 134.393382 37.606201 C 133.709559 37.53479 133.025735 37.562256 132.336397 37.529297 C 131.889706 37.474365 131.426471 37.501831 130.974265 37.479858 C 130.235294 37.402954 129.485294 37.457886 128.746324 37.375488 C 127.963235 37.380981 127.180147 37.315063 126.402574 37.293091 C 126.408088 37.287598 126.413603 37.265625 126.413603 37.260132 C 126.672794 37.265625 126.926471 37.243652 127.191176 37.238159 C 127.764706 37.166748 128.349265 37.216187 128.928309 37.133789 C 129.529412 37.133789 130.125 37.051392 130.726103 37.051392 C 131.261029 36.97998 131.801471 37.023926 132.336397 36.947021 C 132.959559 36.947021 133.577206 36.864624 134.200368 36.859131 C 134.71875 36.793213 135.237132 36.831665 135.755515 36.760254 C 136.356618 36.765747 136.952206 36.672363 137.553309 36.68335 C 138.143382 36.611938 138.744485 36.633911 139.334559 36.567993 C 139.279412 36.33728 139.235294 36.112061 139.185662 35.881348 C 139.141544 35.738525 138.970588 35.765991 138.854779 35.749512 C 137.509191 35.557251 136.169118 35.36499 134.829044 35.178223 C 134.917279 35.112305 135.033088 35.139771 135.132353 35.128784 C 136.174632 35.046387 137.211397 34.953003 138.253676 34.881592 C 138.490809 34.870605 138.722426 34.82666 138.954044 34.821167 C 138.849265 34.49707 138.788603 34.140015 138.645221 33.843384 C 136.417279 33.502808 134.189338 33.200684 131.966912 32.832642 C 132.545956 32.739258 133.130515 32.695312 133.704044 32.634888 L 133.753676 32.612915 C 135.595588 32.420654 137.448529 32.206421 139.290441 32.025146 C 141.628676 32.01416 143.966912 32.019653 146.305147 32.025146 C 146.376838 32.01416 146.509191 32.052612 146.520221 31.942749 C 146.713235 30.9375 146.900735 29.932251 147.09375 28.927002 C 147.358456 27.531738 147.783088 26.152954 148.433824 24.884033 C 149.459559 22.835083 151.075368 21.09375 153.049632 19.940186 C 154.891544 18.863525 157.03125 18.341675 159.154412 18.242798 C 159.84375 18.17688 160.538603 18.198853 161.216912 18.286743 C 161.663603 18.391113 162.126838 18.511963 162.479779 18.81958 C 162.772059 19.055786 162.943015 19.401855 163.075368 19.747925 C 163.362132 20.577393 163.522059 21.428833 163.659926 22.296753 C 163.665441 22.642822 163.726103 23.032837 163.538603 23.35144 C 163.367647 23.659058 163.020221 23.807373 162.689338 23.900757 C 161.492647 24.213867 160.235294 23.922729 159.038603 24.213867 C 158.051471 24.422607 157.136029 24.971924 156.507353 25.757446 C 155.768382 26.674805 155.376838 27.817383 155.161765 28.959961 C 154.996324 29.976196 154.78125 30.997925 154.615809 32.019653 C 155.795956 32.025146 156.981618 32.01416 158.167279 32.025146 C 158.636029 32.025146 159.121324 32.288818 159.314338 32.733765 C 159.5625 33.305054 159.507353 33.947754 159.424632 34.552002 C 159.325368 35.227661 159.165441 35.897827 158.862132 36.518555 C 158.608456 37.045898 158.183824 37.529297 157.604779 37.716064 C 157.306985 37.836914 156.987132 37.809448 156.667279 37.809448 C 155.625 37.809448 154.582721 37.820435 153.540441 37.809448 C 153.375 38.572998 153.264706 39.358521 153.110294 40.133057 C 152.840074 41.638184 152.575368 43.154297 152.299632 44.67041 C 152.294118 44.719849 152.288603 44.824219 152.288603 44.87915 C 152.779412 44.906616 153.270221 44.87915 153.761029 44.890137 C 157.395221 44.890137 161.040441 44.884644 164.680147 44.890137 C 165.071691 44.906616 165.46875 44.813232 165.810662 44.620972 C 166.014706 44.544067 166.141544 44.362793 166.323529 44.263916 C 166.494485 44.165039 166.544118 43.961792 166.693015 43.829956 C 166.852941 43.544312 167.023897 43.247681 167.034926 42.912598 C 167.051471 42.912598 167.101103 42.907104 167.128676 42.901611 C 167.106618 31.481323 167.128676 20.061035 167.117647 8.640747 Z M 167.117647 8.640747 " transform="matrix(0.708333,0,0,0.711111,0,0)"/>
<path style=" stroke:none;fill-rule:nonzero;fill:rgb(97.254902%,95.294118%,70.980392%);fill-opacity:1;" d="M 91.121094 0.800781 C 91.496094 0.683594 91.886719 0.761719 92.269531 0.734375 C 99.449219 0.742188 106.628906 0.734375 113.804688 0.734375 C 114.234375 0.71875 114.605469 0.960938 115.003906 1.085938 C 115.320312 1.210938 115.648438 1.3125 115.964844 1.449219 C 116.03125 1.476562 116.078125 1.535156 116.128906 1.582031 C 116.125 2.164062 116.128906 2.753906 116.128906 3.339844 C 116.132812 3.496094 116.105469 3.652344 116.15625 3.804688 C 116.25 3.816406 116.300781 3.886719 116.359375 3.945312 C 116.652344 4.078125 116.898438 4.292969 117.160156 4.46875 C 117.554688 4.753906 117.980469 5 118.367188 5.289062 C 118.382812 5.40625 118.371094 5.523438 118.335938 5.628906 C 118.296875 5.753906 118.320312 5.886719 118.308594 6.011719 C 107.894531 6.015625 97.484375 6.011719 87.074219 6.015625 C 87.050781 5.867188 87.089844 5.722656 87.027344 5.585938 C 87.019531 5.472656 86.980469 5.320312 87.089844 5.242188 C 87.53125 4.933594 87.996094 4.65625 88.425781 4.328125 C 88.695312 4.15625 88.953125 3.980469 89.214844 3.804688 C 89.265625 3.714844 89.25 3.605469 89.25 3.507812 C 89.25 2.867188 89.25 2.226562 89.253906 1.585938 C 89.402344 1.394531 89.660156 1.371094 89.867188 1.273438 C 90.285156 1.117188 90.707031 0.960938 91.121094 0.800781 Z M 91.148438 0.878906 C 90.585938 1.09375 90.019531 1.300781 89.457031 1.515625 C 89.378906 1.53125 89.339844 1.597656 89.300781 1.652344 C 89.304688 1.6875 89.308594 1.75 89.308594 1.785156 C 89.304688 2.316406 89.308594 2.84375 89.304688 3.375 C 89.308594 3.507812 89.292969 3.640625 89.339844 3.757812 C 89.285156 3.816406 89.222656 3.875 89.152344 3.917969 C 88.515625 4.332031 87.898438 4.785156 87.261719 5.195312 C 87.152344 5.261719 87.027344 5.347656 87.0625 5.492188 C 87.042969 5.574219 87.082031 5.640625 87.164062 5.617188 C 88.546875 5.609375 89.921875 5.625 91.300781 5.605469 C 93.355469 5.605469 95.402344 5.609375 97.457031 5.605469 L 97.488281 5.589844 C 97.578125 5.613281 97.671875 5.605469 97.769531 5.605469 C 101.488281 5.605469 105.207031 5.609375 108.929688 5.605469 C 110.101562 5.609375 111.273438 5.605469 112.449219 5.605469 C 114.382812 5.605469 116.320312 5.621094 118.253906 5.613281 C 118.3125 5.601562 118.328125 5.558594 118.308594 5.488281 C 118.304688 5.417969 118.328125 5.320312 118.253906 5.277344 C 117.949219 5.132812 117.683594 4.90625 117.390625 4.730469 C 117.285156 4.640625 117.148438 4.59375 117.070312 4.472656 C 116.765625 4.300781 116.484375 4.089844 116.183594 3.902344 C 116.128906 3.863281 116.082031 3.808594 116.035156 3.757812 C 116.0625 3.667969 116.070312 3.566406 116.070312 3.46875 C 116.066406 2.90625 116.070312 2.347656 116.066406 1.785156 C 116.078125 1.699219 116.074219 1.597656 115.996094 1.539062 C 115.46875 1.347656 114.945312 1.144531 114.421875 0.953125 C 114.257812 0.871094 114.078125 0.828125 113.902344 0.800781 L 91.433594 0.800781 C 91.335938 0.808594 91.246094 0.855469 91.148438 0.878906 Z M 91.148438 0.878906 "/>
<path style="fill:none;stroke-width:0.103177;stroke-linecap:butt;stroke-linejoin:miter;stroke:rgb(97.254902%,95.294118%,70.980392%);stroke-opacity:1;stroke-miterlimit:4;" d="M 128.641544 1.126099 C 129.170956 0.961304 129.722426 1.071167 130.262868 1.032715 C 140.398897 1.043701 150.534926 1.032715 160.665441 1.032715 C 161.272059 1.010742 161.795956 1.351318 162.358456 1.5271 C 162.805147 1.702881 163.268382 1.845703 163.715074 2.037964 C 163.808824 2.076416 163.875 2.158813 163.946691 2.224731 C 163.941176 3.043213 163.946691 3.872681 163.946691 4.696655 C 163.952206 4.916382 163.913603 5.136108 163.985294 5.350342 C 164.117647 5.366821 164.189338 5.465698 164.272059 5.548096 C 164.685662 5.734863 165.033088 6.036987 165.402574 6.28418 C 165.959559 6.685181 166.560662 7.03125 167.106618 7.437744 C 167.128676 7.602539 167.112132 7.767334 167.0625 7.915649 C 167.007353 8.091431 167.040441 8.278198 167.023897 8.453979 C 152.321691 8.459473 137.625 8.453979 122.928309 8.459473 C 122.895221 8.250732 122.950368 8.047485 122.862132 7.855225 C 122.851103 7.695923 122.795956 7.481689 122.950368 7.371826 C 123.573529 6.937866 124.229779 6.547852 124.836397 6.086426 C 125.216912 5.844727 125.580882 5.597534 125.950368 5.350342 C 126.022059 5.223999 126 5.07019 126 4.932861 C 126 4.031982 126 3.131104 126.005515 2.230225 C 126.215074 1.96106 126.579044 1.928101 126.871324 1.790771 C 127.461397 1.571045 128.056985 1.351318 128.641544 1.126099 M 128.680147 1.235962 C 127.886029 1.538086 127.086397 1.829224 126.292279 2.131348 C 126.181985 2.15332 126.126838 2.246704 126.071691 2.323608 C 126.077206 2.373047 126.082721 2.460938 126.082721 2.510376 C 126.077206 3.257446 126.082721 3.999023 126.077206 4.746094 C 126.082721 4.932861 126.060662 5.119629 126.126838 5.284424 C 126.049632 5.366821 125.961397 5.449219 125.862132 5.509644 C 124.963235 6.091919 124.091912 6.729126 123.193015 7.305908 C 123.038603 7.399292 122.862132 7.520142 122.911765 7.723389 C 122.884191 7.838745 122.939338 7.932129 123.055147 7.89917 C 125.007353 7.888184 126.948529 7.910156 128.895221 7.88269 C 131.795956 7.88269 134.685662 7.888184 137.586397 7.88269 L 137.630515 7.860718 C 137.757353 7.893677 137.889706 7.88269 138.027574 7.88269 C 143.277574 7.88269 148.527574 7.888184 153.783088 7.88269 C 155.4375 7.888184 157.091912 7.88269 158.751838 7.88269 C 161.481618 7.88269 164.216912 7.904663 166.946691 7.893677 C 167.029412 7.877197 167.051471 7.816772 167.023897 7.717896 C 167.018382 7.619019 167.051471 7.481689 166.946691 7.421265 C 166.516544 7.218018 166.141544 6.899414 165.727941 6.652222 C 165.579044 6.525879 165.386029 6.459961 165.275735 6.289673 C 164.845588 6.047974 164.448529 5.751343 164.023897 5.487671 C 163.946691 5.432739 163.880515 5.355835 163.814338 5.284424 C 163.852941 5.158081 163.863971 5.015259 163.863971 4.87793 C 163.858456 4.086914 163.863971 3.301392 163.858456 2.510376 C 163.875 2.389526 163.869485 2.246704 163.759191 2.164307 C 163.014706 1.895142 162.275735 1.609497 161.536765 1.340332 C 161.305147 1.224976 161.051471 1.164551 160.803309 1.126099 L 129.082721 1.126099 C 128.944853 1.137085 128.818015 1.203003 128.680147 1.235962 Z M 128.680147 1.235962 " transform="matrix(0.708333,0,0,0.711111,0,0)"/>
<path style="fill-rule:nonzero;fill:rgb(96.862745%,70.588235%,0.784314%);fill-opacity:1;stroke-width:0.103177;stroke-linecap:butt;stroke-linejoin:miter;stroke:rgb(96.862745%,70.588235%,0.784314%);stroke-opacity:1;stroke-miterlimit:4;" d="M 126.09375 2.515869 C 126.639706 2.746582 127.224265 2.878418 127.775735 3.103638 C 128.073529 3.218994 128.167279 3.543091 128.299632 3.80127 C 128.167279 3.933105 128.012868 4.037476 127.858456 4.136353 C 127.284926 4.520874 126.700368 4.894409 126.137868 5.289917 C 126.071691 5.125122 126.09375 4.938354 126.088235 4.751587 C 126.09375 4.01001 126.088235 3.262939 126.09375 2.515869 Z M 162.1875 3.103638 C 162.738971 2.883911 163.3125 2.735596 163.869485 2.515869 C 163.875 3.306885 163.869485 4.092407 163.875 4.883423 C 163.875 5.020752 163.858456 5.163574 163.825368 5.289917 C 163.340074 4.954834 162.849265 4.641724 162.363971 4.312134 C 162.126838 4.136353 161.867647 4.01001 161.658088 3.795776 C 161.790441 3.537598 161.889706 3.218994 162.1875 3.103638 Z M 162.1875 3.103638 " transform="matrix(0.708333,0,0,0.711111,0,0)"/>
<path style="fill-rule:nonzero;fill:rgb(74.117647%,65.490196%,15.294118%);fill-opacity:1;stroke-width:0.103177;stroke-linecap:butt;stroke-linejoin:miter;stroke:rgb(74.117647%,65.490196%,15.294118%);stroke-opacity:1;stroke-miterlimit:4;" d="M 135.584559 3.356323 C 136.268382 3.197021 137.029412 3.80127 136.974265 4.515381 C 136.979779 5.218506 136.240809 5.789795 135.5625 5.625 C 135.292279 5.531616 135.033088 5.394287 134.862132 5.147095 C 134.647059 4.822998 134.597426 4.378052 134.768382 4.020996 C 134.895221 3.674927 135.231618 3.438721 135.584559 3.356323 Z M 153.292279 3.746338 C 153.579044 3.427734 154.03125 3.251953 154.450368 3.361816 C 154.770221 3.4552 155.079044 3.658447 155.216912 3.971558 C 155.487132 4.504395 155.277574 5.223999 154.742647 5.50415 C 154.273897 5.762329 153.678309 5.641479 153.314338 5.262451 C 152.950368 4.844971 152.922794 4.163818 153.292279 3.746338 Z M 153.292279 3.746338 " transform="matrix(0.708333,0,0,0.711111,0,0)"/>
<path style="fill-rule:nonzero;fill:rgb(96.862745%,90.196078%,17.647059%);fill-opacity:1;stroke-width:0.103177;stroke-linecap:butt;stroke-linejoin:miter;stroke:rgb(96.862745%,90.196078%,17.647059%);stroke-opacity:1;stroke-miterlimit:4;" d="M 127.858456 4.141846 C 128.018382 4.042969 128.172794 3.933105 128.299632 3.806763 L 128.34375 3.850708 C 128.387868 4.169312 128.354779 4.498901 128.371324 4.822998 C 128.349265 5.789795 128.387868 6.767578 128.34375 7.734375 C 126.540441 7.734375 124.731618 7.723389 122.928309 7.734375 C 122.878676 7.531128 123.049632 7.404785 123.204044 7.311401 C 124.108456 6.734619 124.974265 6.102905 125.873162 5.52063 C 125.972426 5.454712 126.060662 5.377808 126.143382 5.29541 C 126.705882 4.899902 127.290441 4.526367 127.858456 4.141846 Z M 161.597426 4.015503 C 161.597426 3.933105 161.619485 3.867188 161.663603 3.80127 C 161.873162 4.01001 162.132353 4.141846 162.369485 4.312134 C 162.854779 4.641724 163.345588 4.960327 163.825368 5.29541 C 163.897059 5.361328 163.957721 5.443726 164.040441 5.493164 C 164.459559 5.762329 164.856618 6.05896 165.286765 6.300659 C 165.397059 6.465454 165.590074 6.536865 165.738971 6.657715 C 166.152574 6.9104 166.527574 7.223511 166.963235 7.432251 C 167.068015 7.492676 167.029412 7.630005 167.034926 7.728882 C 165.231618 7.734375 163.428309 7.723389 161.625 7.734375 C 161.591912 7.487183 161.613971 7.23999 161.608456 6.998291 C 161.608456 6.004028 161.591912 5.009766 161.597426 4.015503 Z M 161.597426 4.015503 " transform="matrix(0.708333,0,0,0.711111,0,0)"/>
<path style="fill-rule:nonzero;fill:url(#radial0);stroke-width:0.103177;stroke-linecap:butt;stroke-linejoin:miter;stroke:rgb(98.823529%,81.960784%,3.529412%);stroke-opacity:1;stroke-miterlimit:4;" d="M 167.034926 7.723389 C 165.231618 7.734375 163.428309 7.717896 161.625 7.734375 C 161.591912 7.481689 161.613971 7.234497 161.608456 6.992798 C 161.608456 5.998535 161.591912 5.009766 161.597426 4.015503 C 161.597426 3.933105 161.619485 3.867188 161.663603 3.795776 C 161.790441 3.537598 161.889706 3.218994 162.1875 3.103638 C 162.744485 2.883911 163.318015 2.735596 163.869485 2.515869 C 163.891544 2.39502 163.886029 2.252197 163.770221 2.1698 C 163.025735 1.906128 162.286765 1.620483 161.547794 1.345825 C 161.321691 1.235962 161.068015 1.170044 160.819853 1.137085 L 129.09375 1.137085 C 128.961397 1.142578 128.829044 1.208496 128.691176 1.241455 C 127.897059 1.543579 127.097426 1.834717 126.303309 2.142334 C 126.198529 2.158813 126.143382 2.252197 126.088235 2.334595 C 126.09375 2.384033 126.099265 2.466431 126.099265 2.515869 C 126.645221 2.746582 127.229779 2.878418 127.78125 3.103638 C 128.079044 3.218994 128.172794 3.543091 128.299632 3.80127 L 128.34375 3.845215 C 128.387868 4.169312 128.354779 4.498901 128.371324 4.822998 C 128.349265 5.789795 128.387868 6.762085 128.34375 7.734375 C 126.540441 7.734375 124.731618 7.717896 122.928309 7.734375 C 122.895221 7.844238 122.950368 7.937622 123.071691 7.904663 C 125.018382 7.893677 126.959559 7.915649 128.911765 7.888184 C 131.806985 7.888184 134.702206 7.893677 137.597426 7.888184 L 137.641544 7.866211 C 137.773897 7.89917 137.900735 7.888184 138.038603 7.888184 C 143.288603 7.888184 148.538603 7.893677 153.799632 7.888184 C 155.448529 7.893677 157.108456 7.888184 158.762868 7.888184 C 161.492647 7.888184 164.233456 7.910156 166.963235 7.89917 C 167.040441 7.88269 167.068015 7.827759 167.034926 7.723389 Z M 134.757353 4.020996 C 134.878676 3.674927 135.215074 3.438721 135.568015 3.356323 C 136.251838 3.197021 137.018382 3.80127 136.957721 4.515381 C 136.96875 5.218506 136.224265 5.789795 135.551471 5.630493 C 135.275735 5.537109 135.016544 5.394287 134.851103 5.152588 C 134.630515 4.822998 134.580882 4.378052 134.757353 4.020996 Z M 153.275735 3.746338 C 153.5625 3.433228 154.014706 3.251953 154.439338 3.361816 C 154.753676 3.4552 155.0625 3.658447 155.200368 3.971558 C 155.476103 4.504395 155.261029 5.223999 154.731618 5.50415 C 154.257353 5.762329 153.661765 5.641479 153.303309 5.262451 C 152.933824 4.844971 152.911765 4.163818 153.275735 3.746338 Z M 153.275735 3.746338 " transform="matrix(0.708333,0,0,0.711111,0,0)"/>
<path style="fill-rule:nonzero;fill:url(#linear1);stroke-width:0.103177;stroke-linecap:butt;stroke-linejoin:miter;stroke:rgb(98.823529%,81.960784%,3.529412%);stroke-opacity:1;stroke-miterlimit:4;" d="M 154.886029 10.453491 C 154.96875 10.469971 154.433824 9.937134 154.538603 9.909668 C 154.637868 9.920654 155.012868 9.629517 155.470588 9.871216 C 155.922794 10.107422 155.8125 10.667725 155.757353 10.870972 C 155.696691 11.118164 155.542279 11.277466 155.415441 11.398315 C 155.349265 11.45874 155.194853 11.541138 155.101103 11.535645 C 155.15625 11.233521 154.979779 11.184082 154.963235 10.870972 Z M 154.886029 10.453491 " transform="matrix(0.708333,0,0,0.711111,0,0)"/>
<path style="fill-rule:nonzero;fill:url(#linear2);stroke-width:0.103177;stroke-linecap:butt;stroke-linejoin:miter;stroke:rgb(98.823529%,81.960784%,3.529412%);stroke-opacity:1;stroke-miterlimit:4;" d="M 135.027574 10.783081 C 135.016544 11.090698 134.834559 11.14563 134.889706 11.447754 C 134.795956 11.453247 134.647059 11.365356 134.575368 11.310425 C 134.454044 11.184082 134.294118 11.030273 134.233456 10.783081 C 134.183824 10.574341 134.068015 10.019531 134.525735 9.777832 C 134.977941 9.541626 135.358456 9.832764 135.457721 9.821777 C 135.5625 9.84375 135.022059 10.38208 135.110294 10.365601 Z M 135.027574 10.783081 " transform="matrix(0.708333,0,0,0.711111,0,0)"/>
<path style="fill-rule:nonzero;fill:rgb(74.117647%,65.490196%,15.294118%);fill-opacity:1;stroke-width:0.103177;stroke-linecap:butt;stroke-linejoin:miter;stroke:rgb(74.117647%,65.490196%,15.294118%);stroke-opacity:1;stroke-miterlimit:4;" d="M 154.069853 14.425049 C 154.163603 14.348145 154.224265 14.348145 154.351103 14.348145 C 153.606618 15.957642 152.735294 17.572632 151.428309 18.830566 C 151.290441 18.956909 151.141544 19.072266 150.987132 19.176636 C 150.838235 19.286499 150.689338 19.390869 150.545956 19.495239 C 150.402574 19.594116 150.259191 19.692993 150.121324 19.797363 C 149.768382 19.989624 149.459559 20.253296 149.068015 20.374146 C 148.356618 20.714722 147.584559 20.945435 146.806985 21.104736 C 146.503676 21.154175 146.194853 21.231079 145.886029 21.236572 C 145.5 21.346436 145.086397 21.264038 144.700368 21.291504 C 144.479779 21.329956 144.286765 21.203613 144.077206 21.231079 C 143.895221 21.203613 143.713235 21.170654 143.53125 21.137695 C 143.34375 21.099243 143.161765 21.055298 142.979779 21.005859 C 140.134191 20.115967 137.34375 17.946167 136.527574 15.007324 C 136.494485 14.80957 136.472426 14.611816 136.472426 14.408569 C 136.560662 14.584351 136.648897 14.754639 136.742647 14.924927 C 137.900735 17.451782 140.200368 19.434814 142.913603 20.033569 C 143.134191 20.132446 143.371324 20.099487 143.580882 20.187378 C 143.773897 20.187378 143.961397 20.181885 144.143382 20.24231 C 144.783088 20.253296 145.422794 20.247803 146.0625 20.247803 C 146.150735 20.253296 146.233456 20.209351 146.316176 20.192871 C 147.386029 20.154419 148.428309 19.868774 149.398897 19.423828 C 149.591912 19.335938 149.784926 19.242554 149.972426 19.143677 C 150.137868 19.055786 150.297794 18.962402 150.457721 18.863525 C 150.612132 18.764648 150.761029 18.660278 150.904412 18.544922 C 152.051471 17.633057 153.044118 16.45752 153.722426 15.100708 C 153.849265 14.859009 153.965074 14.628296 154.069853 14.425049 Z M 154.069853 14.425049 " transform="matrix(0.708333,0,0,0.711111,0,0)"/>
<path style="fill-rule:nonzero;fill:rgb(5.098039%,41.176471%,70.196078%);fill-opacity:1;stroke-width:0.103177;stroke-linecap:butt;stroke-linejoin:miter;stroke:rgb(5.098039%,41.176471%,70.196078%);stroke-opacity:1;stroke-miterlimit:4;" d="M 153.022059 19.951172 C 154.863971 18.874512 156.998162 18.352661 159.121324 18.253784 C 159.810662 18.187866 160.505515 18.209839 161.189338 18.292236 C 161.636029 18.4021 162.09375 18.522949 162.446691 18.830566 C 162.270221 18.841553 162.09375 18.759155 161.917279 18.737183 C 161.404412 18.638306 160.880515 18.671265 160.362132 18.660278 C 158.867647 18.660278 157.362132 18.781128 155.911765 19.187622 C 155.15625 19.418335 154.400735 19.6875 153.711397 20.083008 C 152.520221 20.742188 151.444853 21.610107 150.573529 22.653809 C 149.023897 24.433594 148.113971 26.691284 147.672794 28.99292 C 147.463235 30.228882 147.220588 31.459351 147.027574 32.700806 C 146.71875 32.733765 146.398897 32.711792 146.090074 32.711792 C 144.722426 32.706299 143.360294 32.700806 141.992647 32.689819 C 141.700368 32.700806 141.413603 32.629395 141.121324 32.651367 C 138.639706 32.662354 136.158088 32.645874 133.676471 32.645874 L 133.726103 32.623901 C 135.568015 32.431641 137.415441 32.217407 139.262868 32.036133 C 141.601103 32.025146 143.933824 32.03064 146.277574 32.036133 C 146.349265 32.025146 146.481618 32.058105 146.492647 31.953735 C 146.685662 30.948486 146.873162 29.943237 147.060662 28.937988 C 147.330882 27.542725 147.75 26.16394 148.40625 24.89502 C 149.426471 22.846069 151.047794 21.104736 153.022059 19.951172 Z M 153.022059 19.951172 " transform="matrix(0.708333,0,0,0.711111,0,0)"/>
<path style="fill-rule:nonzero;fill:rgb(6.27451%,48.235294%,83.137255%);fill-opacity:1;stroke-width:0.103177;stroke-linecap:butt;stroke-linejoin:miter;stroke:rgb(6.27451%,48.235294%,83.137255%);stroke-opacity:1;stroke-miterlimit:4;" d="M 155.928309 19.182129 C 157.373162 18.770142 158.884191 18.654785 160.378676 18.654785 C 160.891544 18.665771 161.420956 18.627319 161.928309 18.726196 C 162.110294 18.753662 162.28125 18.83606 162.463235 18.81958 C 162.755515 19.055786 162.926471 19.407349 163.058824 19.753418 C 163.345588 20.577393 163.505515 21.434326 163.643382 22.296753 C 163.648897 22.642822 163.709559 23.03833 163.522059 23.35144 C 163.351103 23.664551 163.003676 23.812866 162.672794 23.90625 C 161.476103 24.213867 160.224265 23.922729 159.027574 24.213867 C 158.040441 24.428101 157.119485 24.971924 156.490809 25.762939 C 155.751838 26.680298 155.360294 27.822876 155.145221 28.965454 C 154.979779 29.981689 154.764706 30.997925 154.599265 32.025146 C 154.527574 32.250366 154.483456 32.503052 154.439338 32.744751 C 155.608456 32.76123 156.783088 32.744751 157.957721 32.755737 C 158.404412 32.744751 158.851103 32.766724 159.297794 32.739258 C 159.545956 33.310547 159.490809 33.953247 159.408088 34.557495 C 159.308824 35.233154 159.148897 35.90332 158.845588 36.524048 C 158.591912 37.051392 158.167279 37.53479 157.59375 37.721558 C 157.290441 37.836914 156.970588 37.814941 156.65625 37.814941 C 155.608456 37.814941 154.566176 37.825928 153.523897 37.814941 C 153.358456 38.578491 153.248162 39.358521 153.099265 40.133057 C 152.823529 41.643677 152.558824 43.15979 152.283088 44.67041 C 152.277574 44.719849 152.272059 44.829712 152.272059 44.884644 L 152.272059 44.890137 C 149.558824 44.890137 146.856618 44.89563 144.143382 44.890137 C 144.148897 44.862671 144.154412 44.818726 144.159926 44.796753 C 144.165441 44.763794 144.170956 44.697876 144.176471 44.659424 C 144.1875 44.708862 144.193015 44.802246 144.198529 44.846191 C 144.363971 44.862671 144.667279 44.950562 144.711397 44.708862 C 145.136029 42.423706 145.527574 40.127563 145.957721 37.842407 C 145.792279 37.809448 145.621324 37.809448 145.444853 37.836914 C 145.417279 37.924805 145.395221 38.012695 145.362132 38.100586 L 145.400735 37.820435 C 143.713235 37.814941 142.020221 37.820435 140.332721 37.814941 C 139.919118 37.803955 139.5 37.814941 139.086397 37.765503 C 138.386029 37.732544 137.680147 37.76001 136.979779 37.688599 C 136.108456 37.688599 135.248162 37.611694 134.376838 37.611694 C 133.698529 37.540283 133.009191 37.567749 132.319853 37.53479 C 131.873162 37.479858 131.409926 37.501831 130.957721 37.485352 C 130.21875 37.402954 129.46875 37.457886 128.729779 37.380981 C 127.946691 37.386475 127.169118 37.315063 126.386029 37.298584 C 126.391544 37.293091 126.397059 37.265625 126.397059 37.260132 C 126.65625 37.265625 126.909926 37.249146 127.174632 37.243652 C 127.748162 37.166748 128.332721 37.216187 128.911765 37.139282 C 129.512868 37.139282 130.108456 37.056885 130.709559 37.056885 C 131.244485 36.97998 131.784926 37.023926 132.319853 36.952515 C 132.943015 36.952515 133.560662 36.870117 134.183824 36.864624 C 134.702206 36.793213 135.220588 36.831665 135.738971 36.765747 C 136.340074 36.77124 136.935662 36.677856 137.536765 36.68335 C 138.126838 36.617432 138.727941 36.633911 139.318015 36.573486 C 139.262868 36.342773 139.21875 36.112061 139.169118 35.881348 C 139.125 35.738525 138.954044 35.771484 138.84375 35.755005 C 137.492647 35.562744 136.152574 35.370483 134.8125 35.183716 C 134.900735 35.112305 135.016544 35.145264 135.115809 35.134277 C 136.158088 35.05188 137.194853 34.958496 138.237132 34.881592 C 138.474265 34.870605 138.705882 34.82666 138.943015 34.821167 C 138.832721 34.49707 138.772059 34.145508 138.628676 33.848877 C 136.400735 33.508301 134.172794 33.200684 131.950368 32.838135 C 132.529412 32.744751 133.113971 32.700806 133.6875 32.634888 C 136.174632 32.634888 138.65625 32.65686 141.137868 32.645874 C 141.430147 32.623901 141.716912 32.695312 142.009191 32.678833 C 143.371324 32.695312 144.738971 32.700806 146.101103 32.706299 C 146.415441 32.706299 146.729779 32.722778 147.038603 32.695312 C 147.231618 31.453857 147.474265 30.223389 147.683824 28.987427 C 148.125 26.685791 149.040441 24.428101 150.590074 22.642822 C 151.461397 21.604614 152.53125 20.731201 153.722426 20.077515 C 154.411765 19.676514 155.167279 19.412842 155.928309 19.182129 Z M 155.928309 19.182129 " transform="matrix(0.708333,0,0,0.711111,0,0)"/>
<path style="fill-rule:nonzero;fill:rgb(5.098039%,41.176471%,70.196078%);fill-opacity:1;stroke-width:0.103177;stroke-linecap:butt;stroke-linejoin:miter;stroke:rgb(5.098039%,41.176471%,70.196078%);stroke-opacity:1;stroke-miterlimit:4;" d="M 154.59375 32.025146 C 155.773897 32.03064 156.959559 32.019653 158.145221 32.03064 C 158.613971 32.03064 159.099265 32.294312 159.292279 32.739258 C 158.845588 32.772217 158.398897 32.744751 157.952206 32.76123 C 156.777574 32.744751 155.608456 32.766724 154.433824 32.744751 C 154.477941 32.503052 154.522059 32.255859 154.59375 32.025146 Z M 145.439338 37.842407 C 145.615809 37.809448 145.786765 37.809448 145.957721 37.8479 C 145.522059 40.133057 145.130515 42.429199 144.705882 44.714355 C 144.661765 44.956055 144.358456 44.868164 144.193015 44.851685 C 144.1875 44.807739 144.181985 44.714355 144.176471 44.664917 C 144.5625 42.478638 144.943015 40.286865 145.356618 38.106079 C 145.389706 38.018188 145.417279 37.930298 145.439338 37.842407 Z M 145.439338 37.842407 " transform="matrix(0.708333,0,0,0.711111,0,0)"/>
<path style="fill-rule:nonzero;fill:rgb(100%,100%,100%);fill-opacity:1;stroke-width:0.103177;stroke-linecap:butt;stroke-linejoin:miter;stroke:rgb(100%,100%,100%);stroke-opacity:1;stroke-miterlimit:4;" d="M 155.161765 10.623779 C 155.112132 10.530396 155.106618 10.420532 155.106618 10.310669 L 155.056985 10.316162 C 154.979779 10.046997 154.753676 9.783325 154.450368 9.772339 C 154.229779 9.755859 153.948529 9.761353 153.821691 9.970093 C 153.573529 10.305176 153.689338 10.733643 153.678309 11.112671 C 153.678309 11.140137 153.683824 11.184082 153.683824 11.206055 C 153.683824 11.45874 153.650735 11.711426 153.606618 11.958618 C 153.573529 12.030029 153.551471 12.112427 153.551471 12.200317 C 153.446691 12.782593 153.237132 13.359375 152.950368 13.886719 C 152.895221 13.963623 152.851103 14.040527 152.834559 14.128418 C 152.647059 14.452515 152.426471 14.749146 152.194853 15.045776 C 152.15625 15.078735 152.128676 15.117188 152.095588 15.15564 C 151.935662 15.353394 151.759191 15.518188 151.582721 15.69397 C 151.538603 15.715942 151.505515 15.748901 151.466912 15.776367 C 151.257353 15.979614 151.020221 16.171875 150.766544 16.325684 C 150.733456 16.347656 150.705882 16.369629 150.667279 16.397095 C 149.079044 17.446289 147.148897 17.880249 145.268382 17.896729 C 143.674632 17.946167 142.064338 17.605591 140.625 16.918945 C 140.597426 16.902466 140.536765 16.880493 140.514706 16.869507 C 140.272059 16.737671 140.023897 16.622314 139.797794 16.463013 C 139.748162 16.44104 139.698529 16.408081 139.643382 16.380615 C 139.417279 16.248779 139.196691 16.094971 138.992647 15.924683 C 138.926471 15.858765 138.849265 15.809326 138.777574 15.754395 C 138.551471 15.578613 138.319853 15.380859 138.132353 15.166626 C 138.082721 15.111694 138.033088 15.062256 137.983456 15.012817 C 137.305147 14.309692 136.775735 13.452759 136.5 12.524414 C 136.229779 11.782837 136.268382 10.975342 136.235294 10.200806 C 136.014706 9.860229 135.540441 9.667969 135.170956 9.876709 C 135.016544 9.992065 134.994485 10.195312 134.878676 10.338135 C 134.685662 12.387085 135.5625 14.425049 136.957721 15.90271 C 136.957721 15.952148 136.979779 15.985107 137.023897 16.001587 C 137.272059 16.2323 137.514706 16.468506 137.762868 16.693726 C 137.806985 16.737671 137.856618 16.781616 137.911765 16.814575 C 138.159926 17.023315 138.430147 17.210083 138.689338 17.402344 C 138.738971 17.435303 138.788603 17.468262 138.84375 17.501221 C 139.185662 17.698975 139.505515 17.935181 139.875 18.07251 C 139.897059 18.088989 139.941176 18.121948 139.96875 18.132935 C 141.148897 18.69873 142.417279 19.083252 143.724265 19.204102 C 143.867647 19.204102 144.005515 19.220581 144.148897 19.248047 C 144.772059 19.286499 145.389706 19.27002 146.012868 19.259033 C 147.931985 19.088745 149.911765 18.621826 151.511029 17.495728 L 151.527574 17.5177 C 151.582721 17.473755 151.621324 17.435303 151.670956 17.402344 C 151.924632 17.215576 152.178309 17.017822 152.426471 16.809082 C 152.481618 16.765137 152.542279 16.715698 152.597426 16.660767 C 152.873162 16.364136 153.1875 16.089478 153.419118 15.748901 L 153.452206 15.770874 C 153.474265 15.737915 153.501838 15.67749 153.523897 15.644531 C 153.733456 15.358887 153.926471 15.062256 154.113971 14.760132 C 154.125 14.743652 154.158088 14.710693 154.169118 14.694214 L 154.141544 14.672241 C 154.163603 14.644775 154.207721 14.595337 154.224265 14.567871 C 154.566176 13.875732 154.869485 13.150635 154.974265 12.381592 C 155.018382 12.359619 155.040441 12.321167 155.040441 12.282715 C 155.051471 12.030029 155.134191 11.793823 155.112132 11.546631 C 155.167279 11.244507 155.172794 10.931396 155.161765 10.623779 Z M 155.161765 10.623779 " transform="matrix(0.708333,0,0,0.711111,0,0)"/>
<path style="fill:none;stroke-width:2.19525;stroke-linecap:butt;stroke-linejoin:miter;stroke:rgb(81.960784%,81.960784%,81.960784%);stroke-opacity:1;stroke-miterlimit:4;" d="M 134.415441 10.409546 C 134.917279 10.568848 136.075368 10.167847 136.400735 10.530396 M 134.707721 11.936646 C 135.1875 11.771851 136.224265 11.376343 136.648897 11.607056 M 135.204044 13.469238 C 135.435662 13.546143 135.893382 13.134155 136.125 13.018799 C 136.461397 12.837524 136.808824 12.700195 137.189338 12.645264 M 135.948529 15.084229 C 136.185662 14.743652 136.472426 14.458008 136.819853 14.216309 C 137.167279 13.974609 138.110294 13.331909 138.512868 13.551636 M 136.648897 16.243286 C 136.924632 16.02356 137.034926 15.644531 137.321691 15.413818 C 137.669118 15.13916 138.198529 15.089722 138.551471 14.919434 M 137.818015 17.10022 C 137.900735 16.501465 138.507353 15.776367 139.091912 15.831299 M 138.716912 17.940674 C 139.025735 17.907715 139.284926 17.221069 139.494485 16.984863 C 139.803309 16.638794 140.128676 16.528931 140.542279 16.408081 M 140.498162 18.682251 C 140.481618 18.248291 140.928309 17.006836 141.452206 17.067261 M 141.821691 19.099731 C 141.799632 18.583374 142.064338 17.039795 142.693015 16.984863 M 143.189338 19.923706 C 143.068015 19.209595 143.079044 18.171387 143.641544 17.649536 M 144.882353 20.088501 C 144.821691 19.489746 144.226103 18.28125 144.882353 17.814331 M 146.707721 19.676514 C 146.420956 19.346924 146.255515 18.050537 146.371324 17.687988 M 148.444853 19.385376 C 148.224265 18.989868 147.954044 18.616333 147.871324 18.154907 C 147.821691 17.880249 147.904412 17.484741 147.860294 17.276001 M 149.889706 18.764648 C 149.415441 18.457031 149.283088 17.314453 149.4375 16.820068 M 151.295956 18.143921 C 150.959559 17.418823 150.601103 16.858521 150.595588 16.034546 M 152.663603 16.820068 C 152.139706 16.468506 151.466912 15.825806 151.544118 15.122681 M 154.108456 15.704956 C 153.314338 15.529175 152.354779 14.815063 151.875 14.172363 M 154.775735 14.337158 C 154.196691 14.216309 152.299632 13.474731 152.415441 12.727661 M 155.393382 12.892456 C 154.59375 12.595825 153.424632 12.332153 152.784926 11.771851 M 155.806985 11.568604 C 155.305147 11.612549 154.582721 11.365356 154.064338 11.277466 C 153.496324 11.178589 152.966912 10.986328 152.415441 10.865479 M 155.310662 10.283203 C 154.340074 10.343628 153.424632 10.008545 152.536765 9.706421 " transform="matrix(0.708333,0,0,0.711111,0,0)"/>
<path style="fill-rule:nonzero;fill:rgb(6.27451%,48.235294%,83.137255%);fill-opacity:1;stroke-width:0.11086;stroke-linecap:butt;stroke-linejoin:miter;stroke:rgb(6.27451%,48.235294%,83.137255%);stroke-opacity:1;stroke-miterlimit:4;" d="M 30.716912 13.276978 C 31.615809 13.139648 32.652574 13.057251 33.413603 13.617554 C 33.893382 13.974609 34.058824 14.61731 34.025735 15.194092 C 34.058824 16.144409 33.617647 17.166138 32.768382 17.655029 C 32.023897 18.061523 31.125 18.094482 30.292279 18.012085 C 29.735294 17.946167 29.172794 17.63855 28.886029 17.127686 C 28.240809 15.655518 29.034926 13.568115 30.716912 13.276978 Z M 3.805147 14.348145 C 3.854779 13.83728 4.3125 13.381348 4.841912 13.397827 C 8.757353 13.397827 12.661765 13.414307 16.566176 13.397827 C 16.990809 13.364868 17.448529 13.551636 17.652574 13.919678 C 17.939338 14.430542 17.685662 14.990845 17.652574 15.518188 C 17.53125 16.2323 17.564338 17.182617 16.737132 17.451782 C 13.886029 17.53418 11.034926 17.451782 8.183824 17.484741 C 7.908088 19.286499 7.654412 21.066284 7.384191 22.846069 C 7.384191 22.91748 7.400735 23.071289 7.400735 23.137207 C 9.490809 23.120728 11.575368 23.137207 13.665441 23.120728 C 14.238971 23.087769 14.851103 23.57666 14.801471 24.186401 C 14.751838 24.818115 14.613971 25.427856 14.53125 26.054077 C 14.459559 26.477051 14.123162 26.872559 13.681985 26.954956 C 11.354779 27.004395 8.994485 26.905518 6.672794 27.004395 C 6.297794 29.569702 5.856618 32.129517 5.465074 34.694824 C 5.415441 35.200195 5.007353 35.645142 4.5 35.661621 C 3.534926 35.678101 2.564338 35.678101 1.599265 35.661621 C 0.970588 35.678101 0.463235 34.980469 0.628676 34.387207 C 1.665441 27.702026 2.735294 21.033325 3.805147 14.348145 Z M 21.044118 13.430786 C 21.926471 13.364868 22.825368 13.414307 23.707721 13.397827 C 24.253676 13.364868 24.794118 13.787842 24.84375 14.348145 C 24.84375 14.787598 24.727941 15.227051 24.678309 15.671997 C 23.961397 20.220337 23.233456 24.763184 22.522059 29.311523 C 22.417279 30.042114 22.235294 30.822144 22.455882 31.569214 C 22.709559 32.316284 23.845588 31.992188 24.115809 32.77771 C 24.286765 33.403931 24.099265 34.06311 24.049632 34.711304 C 24 35.557251 23.029412 35.744019 22.367647 35.930786 C 20.928309 36.205444 19.180147 36.002197 18.143382 34.810181 C 17.398897 33.947754 17.34375 32.722778 17.498162 31.640625 C 18.397059 25.86731 19.295956 20.099487 20.211397 14.315186 C 20.266544 13.886719 20.602941 13.496704 21.044118 13.430786 Z M 54.727941 14.348145 C 54.777574 13.83728 55.240809 13.397827 55.748162 13.397827 L 58.329044 13.397827 C 58.96875 13.381348 59.498162 14.073486 59.34375 14.688721 C 58.748162 18.451538 58.141544 22.219849 57.545956 25.988159 C 58.444853 25.85083 59.465074 25.680542 60.09375 24.949951 C 61.141544 23.763428 62.007353 22.390137 62.652574 20.945435 C 62.873162 20.385132 62.994485 19.572144 63.722426 19.473267 C 64.693015 19.434814 65.674632 19.456787 66.639706 19.473267 C 67.301471 19.456787 67.797794 20.198364 67.577206 20.813599 C 67.318015 21.708984 66.898897 22.543945 66.457721 23.340454 C 65.470588 24.933472 64.384191 26.515503 62.961397 27.767944 C 63.584559 29.6521 64.384191 31.486816 65.079044 33.338013 C 65.283088 33.947754 65.773897 34.656372 65.316176 35.255127 C 64.792279 35.963745 63.805147 35.606689 63.077206 35.69458 C 62.316176 35.606689 61.213235 35.996704 60.788603 35.134277 C 59.988971 33.283081 59.327206 31.382446 58.511029 29.536743 C 58.036765 29.553223 57.545956 29.569702 57.071691 29.514771 C 57.038603 29.586182 56.966912 29.723511 56.933824 29.789429 C 56.680147 31.486816 56.409926 33.184204 56.139706 34.881592 C 56.034926 35.288086 55.715074 35.645142 55.273897 35.678101 C 54.375 35.71106 53.454044 35.69458 52.538603 35.69458 C 52.147059 35.69458 51.794118 35.441895 51.623162 35.101318 C 51.452206 34.760742 51.556985 34.370728 51.606618 33.997192 C 52.659926 27.449341 53.691176 20.895996 54.727941 14.348145 Z M 101.889706 16.193848 C 102.005515 15.721436 102.463235 15.397339 102.9375 15.413818 C 103.615809 15.430298 104.316176 15.397339 105.011029 15.430298 C 105.568015 15.446777 106.009191 16.00708 105.943015 16.550903 C 105.84375 17.5177 105.601103 18.484497 105.534926 19.456787 C 106.196691 19.456787 106.875 19.434814 107.536765 19.456787 C 108.132353 19.456787 108.623162 20.066528 108.523897 20.643311 C 108.435662 21.170654 108.319853 21.676025 108.231618 22.203369 C 108.148897 22.642822 107.773897 22.999878 107.349265 23.071289 C 106.538603 23.120728 105.738971 23.032837 104.939338 23.120728 C 104.602941 25.394897 104.227941 27.669067 103.869485 29.943237 C 103.819853 30.465088 103.786765 31.063843 104.095588 31.519775 C 104.553309 32.080078 105.347426 31.876831 105.992647 31.942749 C 106.505515 32.096558 106.825368 32.65686 106.742647 33.167725 C 106.654412 33.744507 106.637868 34.321289 106.505515 34.881592 C 106.301471 35.507812 105.568015 35.628662 105.011029 35.776978 C 103.466912 36.183472 101.685662 36.183472 100.306985 35.288086 C 99.038603 34.420166 98.834559 32.739258 98.966912 31.316528 C 99.325368 28.564453 99.882353 25.834351 100.191176 23.071289 C 99.716912 23.087769 99.137868 23.153687 98.779412 22.730713 C 98.376838 22.307739 98.575368 21.676025 98.647059 21.148682 C 98.746324 20.588379 98.729779 19.863281 99.341912 19.555664 C 99.832721 19.368896 100.395221 19.506226 100.919118 19.434814 C 101.244485 18.352661 101.547794 17.265015 101.889706 16.193848 Z M 92.299632 21.692505 C 93.369485 20.626831 94.659926 19.742432 96.132353 19.302979 C 96.777574 19.011841 97.610294 19.555664 97.59375 20.269775 C 97.472426 21.203613 97.251838 22.120972 97.102941 23.032837 C 97.03125 23.494263 96.645221 23.884277 96.1875 23.933716 C 94.522059 24.224854 93.077206 25.224609 91.924632 26.411133 C 91.637868 26.768188 91.213235 27.108765 91.163603 27.597656 C 90.805147 29.976196 90.430147 32.349243 90.060662 34.727783 C 90.011029 35.233154 89.569853 35.727539 89.040441 35.69458 L 86.459559 35.69458 C 85.869485 35.727539 85.340074 35.134277 85.411765 34.541016 C 86.15625 29.838867 86.900735 25.158691 87.634191 20.456543 C 87.667279 19.978638 88.003676 19.522705 88.5 19.473267 C 89.128676 19.434814 89.751838 19.456787 90.397059 19.456787 C 90.909926 19.456787 91.384191 19.91272 91.384191 20.440063 C 91.384191 21.170654 91.3125 21.912231 91.295956 22.659302 C 91.704044 22.406616 91.957721 22.000122 92.299632 21.692505 Z M 28.869485 19.539185 C 29.784926 19.352417 30.733456 19.506226 31.648897 19.456787 C 32.178309 19.385376 32.735294 19.725952 32.823529 20.253296 C 32.889706 20.725708 32.751838 21.187134 32.702206 21.643066 C 32.007353 26.004639 31.3125 30.366211 30.634191 34.727783 C 30.579044 35.216675 30.176471 35.71106 29.647059 35.69458 C 28.731618 35.69458 27.816176 35.71106 26.884191 35.678101 C 26.305147 35.606689 25.880515 34.94751 26.034926 34.387207 C 26.762868 29.855347 27.457721 25.345459 28.191176 20.813599 C 28.224265 20.319214 28.356618 19.742432 28.869485 19.539185 Z M 83.779412 19.758911 C 81.253676 19.286499 78.672794 18.945923 76.108456 19.198608 C 73.819853 19.489746 71.509191 20.522461 70.102941 22.406616 C 68.150735 24.884033 67.488971 28.212891 67.930147 31.300049 C 68.167279 32.77771 68.8125 34.266357 70.020221 35.183716 C 71.139706 36.051636 72.650735 36.166992 74.007353 35.947266 C 75.904412 35.57373 77.520221 34.354248 78.84375 32.997437 C 78.909926 33.574219 78.772059 34.151001 78.810662 34.711304 C 78.84375 35.233154 79.318015 35.727539 79.841912 35.69458 L 81.573529 35.69458 C 82.086397 35.69458 82.505515 35.216675 82.544118 34.727783 C 83.272059 30.130005 84 25.548706 84.711397 20.967407 C 84.816176 20.385132 84.358456 19.830322 83.779412 19.758911 Z M 79.014706 27.751465 C 78.330882 29.025879 77.382353 30.179443 76.3125 31.16272 C 75.705882 31.673584 74.922794 32.200928 74.090074 32.03064 C 73.273897 31.860352 72.887868 31.008911 72.700368 30.27832 C 72.275735 28.377686 72.667279 26.312256 73.737132 24.664307 C 74.211397 23.900757 74.972426 23.323975 75.854779 23.087769 C 77.095588 22.780151 78.402574 22.93396 79.604779 23.274536 L 79.676471 23.340454 C 79.522059 24.818115 79.235294 26.273804 79.014706 27.751465 Z M 50.470588 25.20813 C 50.454044 23.510742 49.996324 21.730957 48.805147 20.456543 C 47.994485 19.555664 46.770221 19.099731 45.584559 19.116211 C 43.615809 19.0448 41.762868 20.01709 40.323529 21.30249 C 39.998162 21.560669 39.777574 21.934204 39.424632 22.137451 C 39.424632 21.577148 39.474265 21.016846 39.457721 20.440063 C 39.474265 19.91272 38.983456 19.456787 38.470588 19.456787 L 36.738971 19.456787 C 36.198529 19.456787 35.757353 19.929199 35.724265 20.456543 C 34.654412 27.240601 33.568015 34.030151 32.498162 40.819702 C 32.349265 41.445923 32.889706 42.094116 33.534926 42.072144 C 34.483456 42.055664 35.454044 42.143555 36.386029 42.006226 C 37.130515 41.802979 37.113971 40.935059 37.235294 40.308838 C 37.505515 38.814697 37.693015 37.320557 37.863971 35.81543 C 41.205882 36.45813 45.088235 36.018677 47.586397 33.486328 C 49.621324 31.26709 50.569853 28.190918 50.470588 25.20813 Z M 45.716912 26.921997 C 45.617647 28.482056 45.055147 30.058594 43.96875 31.195679 C 42.5625 32.536011 40.422794 32.349243 38.691176 31.893311 C 38.658088 31.843872 38.608456 31.739502 38.591912 31.690063 C 38.862132 30.212402 39 28.718262 39.336397 27.262573 C 40.290441 25.697021 41.443015 24.120483 43.086397 23.258057 C 43.698529 22.966919 44.53125 23.032837 44.972426 23.59314 C 45.716912 24.526978 45.788603 25.784912 45.716912 26.921997 Z M 45.716912 26.921997 " transform="matrix(0.708333,0,0,0.711111,0,0)"/>
</g>
</svg>
