<svg width="16" height="17" viewBox="0 0 16 17" fill="none" xmlns="http://www.w3.org/2000/svg">
<path fill-rule="evenodd" clip-rule="evenodd" d="M3.8919 8.57765C3.8919 6.30878 5.73114 4.46953 8.00002 4.46953C10.2689 4.46953 12.1081 6.30878 12.1081 8.57765C12.1081 10.8465 10.2689 12.6857 8.00002 12.6857C5.73114 12.6857 3.8919 10.8465 3.8919 8.57765ZM8.00001 11.2443C6.52723 11.2443 5.33333 10.0504 5.33333 8.57765C5.33333 7.10487 6.52723 5.91097 8.00001 5.91097C9.47276 5.91097 10.6667 7.10487 10.6667 8.57765C10.6667 10.0504 9.47276 11.2443 8.00001 11.2443Z" fill="url(#paint0_linear_233_1984)"/>
<path fill-rule="evenodd" clip-rule="evenodd" d="M3.8919 8.57765C3.8919 6.30878 5.73114 4.46953 8.00002 4.46953C10.2689 4.46953 12.1081 6.30878 12.1081 8.57765C12.1081 10.8465 10.2689 12.6857 8.00002 12.6857C5.73114 12.6857 3.8919 10.8465 3.8919 8.57765ZM8.00001 11.2443C6.52723 11.2443 5.33333 10.0504 5.33333 8.57765C5.33333 7.10487 6.52723 5.91097 8.00001 5.91097C9.47276 5.91097 10.6667 7.10487 10.6667 8.57765C10.6667 10.0504 9.47276 11.2443 8.00001 11.2443Z" fill="url(#paint1_radial_233_1984)"/>
<path d="M12.2704 5.26721C12.8006 5.26721 13.2304 4.83743 13.2304 4.30723C13.2304 3.77703 12.8006 3.34721 12.2704 3.34721C11.7402 3.34721 11.3104 3.77703 11.3104 4.30723C11.3104 4.83743 11.7402 5.26721 12.2704 5.26721Z" fill="url(#paint2_linear_233_1984)"/>
<path d="M12.2704 5.26721C12.8006 5.26721 13.2304 4.83743 13.2304 4.30723C13.2304 3.77703 12.8006 3.34721 12.2704 3.34721C11.7402 3.34721 11.3104 3.77703 11.3104 4.30723C11.3104 4.83743 11.7402 5.26721 12.2704 5.26721Z" fill="url(#paint3_radial_233_1984)"/>
<path fill-rule="evenodd" clip-rule="evenodd" d="M8.00002 0.577637C5.82733 0.577637 5.5549 0.586846 4.70161 0.625779C3.8501 0.664617 3.26855 0.799866 2.7597 0.997642C2.23363 1.20206 1.78748 1.4756 1.34271 1.92035C0.897966 2.36512 0.624419 2.81126 0.420006 3.33733C0.222229 3.84619 0.0869798 4.42774 0.0481422 5.27925C0.00920926 6.13253 0 6.40497 0 8.57765C0 10.7503 0.00920926 11.0227 0.0481422 11.876C0.0869798 12.7275 0.222229 13.3091 0.420006 13.8179C0.624419 14.344 0.897966 14.7902 1.34271 15.2349C1.78748 15.6797 2.23363 15.9532 2.7597 16.1577C3.26855 16.3554 3.8501 16.4907 4.70161 16.5295C5.5549 16.5684 5.82733 16.5776 8.00002 16.5776C10.1727 16.5776 10.4451 16.5684 11.2984 16.5295C12.1499 16.4907 12.7314 16.3554 13.2403 16.1577C13.7664 15.9532 14.2125 15.6797 14.6573 15.2349C15.102 14.7902 15.3756 14.344 15.58 13.8179C15.7778 13.3091 15.913 12.7275 15.9519 11.876C15.9908 11.0227 16 10.7503 16 8.57765C16 6.40497 15.9908 6.13253 15.9519 5.27925C15.913 4.42774 15.7778 3.84619 15.58 3.33733C15.3756 2.81126 15.102 2.36512 14.6573 1.92035C14.2125 1.4756 13.7664 1.20206 13.2403 0.997642C12.7314 0.799866 12.1499 0.664617 11.2984 0.625779C10.4451 0.586846 10.1727 0.577637 8.00002 0.577637ZM8.00002 2.01908C10.1361 2.01908 10.3891 2.02724 11.2327 2.06573C12.0127 2.10129 12.4363 2.23162 12.7182 2.34118C13.0916 2.4863 13.3581 2.65966 13.638 2.93962C13.918 3.21955 14.0913 3.48605 14.2365 3.85947C14.346 4.14136 14.4763 4.56496 14.5119 5.34495C14.5504 6.18852 14.5586 6.44155 14.5586 8.57765C14.5586 10.7137 14.5504 10.9668 14.5119 11.8103C14.4763 12.5903 14.346 13.0139 14.2365 13.2958C14.0913 13.6692 13.918 13.9357 13.638 14.2157C13.3581 14.4956 13.0916 14.669 12.7182 14.8141C12.4363 14.9237 12.0127 15.054 11.2327 15.0895C10.3892 15.128 10.1362 15.1362 8.00002 15.1362C5.86376 15.1362 5.61079 15.128 4.76732 15.0895C3.98732 15.054 3.56373 14.9237 3.28183 14.8141C2.90841 14.669 2.64191 14.4956 2.36198 14.2157C2.08206 13.9357 1.90867 13.6692 1.76354 13.2958C1.65398 13.0139 1.52366 12.5903 1.48809 11.8103C1.4496 10.9668 1.44144 10.7137 1.44144 8.57765C1.44144 6.44155 1.4496 6.18852 1.48809 5.34495C1.52366 4.56496 1.65398 4.14136 1.76354 3.85947C1.90867 3.48605 2.08202 3.21955 2.36198 2.93962C2.64191 2.65966 2.90841 2.4863 3.28183 2.34118C3.56373 2.23162 3.98732 2.10129 4.76732 2.06573C5.61088 2.02724 5.86392 2.01908 8.00002 2.01908Z" fill="url(#paint4_linear_233_1984)"/>
<path fill-rule="evenodd" clip-rule="evenodd" d="M8.00002 0.577637C5.82733 0.577637 5.5549 0.586846 4.70161 0.625779C3.8501 0.664617 3.26855 0.799866 2.7597 0.997642C2.23363 1.20206 1.78748 1.4756 1.34271 1.92035C0.897966 2.36512 0.624419 2.81126 0.420006 3.33733C0.222229 3.84619 0.0869798 4.42774 0.0481422 5.27925C0.00920926 6.13253 0 6.40497 0 8.57765C0 10.7503 0.00920926 11.0227 0.0481422 11.876C0.0869798 12.7275 0.222229 13.3091 0.420006 13.8179C0.624419 14.344 0.897966 14.7902 1.34271 15.2349C1.78748 15.6797 2.23363 15.9532 2.7597 16.1577C3.26855 16.3554 3.8501 16.4907 4.70161 16.5295C5.5549 16.5684 5.82733 16.5776 8.00002 16.5776C10.1727 16.5776 10.4451 16.5684 11.2984 16.5295C12.1499 16.4907 12.7314 16.3554 13.2403 16.1577C13.7664 15.9532 14.2125 15.6797 14.6573 15.2349C15.102 14.7902 15.3756 14.344 15.58 13.8179C15.7778 13.3091 15.913 12.7275 15.9519 11.876C15.9908 11.0227 16 10.7503 16 8.57765C16 6.40497 15.9908 6.13253 15.9519 5.27925C15.913 4.42774 15.7778 3.84619 15.58 3.33733C15.3756 2.81126 15.102 2.36512 14.6573 1.92035C14.2125 1.4756 13.7664 1.20206 13.2403 0.997642C12.7314 0.799866 12.1499 0.664617 11.2984 0.625779C10.4451 0.586846 10.1727 0.577637 8.00002 0.577637ZM8.00002 2.01908C10.1361 2.01908 10.3891 2.02724 11.2327 2.06573C12.0127 2.10129 12.4363 2.23162 12.7182 2.34118C13.0916 2.4863 13.3581 2.65966 13.638 2.93962C13.918 3.21955 14.0913 3.48605 14.2365 3.85947C14.346 4.14136 14.4763 4.56496 14.5119 5.34495C14.5504 6.18852 14.5586 6.44155 14.5586 8.57765C14.5586 10.7137 14.5504 10.9668 14.5119 11.8103C14.4763 12.5903 14.346 13.0139 14.2365 13.2958C14.0913 13.6692 13.918 13.9357 13.638 14.2157C13.3581 14.4956 13.0916 14.669 12.7182 14.8141C12.4363 14.9237 12.0127 15.054 11.2327 15.0895C10.3892 15.128 10.1362 15.1362 8.00002 15.1362C5.86376 15.1362 5.61079 15.128 4.76732 15.0895C3.98732 15.054 3.56373 14.9237 3.28183 14.8141C2.90841 14.669 2.64191 14.4956 2.36198 14.2157C2.08206 13.9357 1.90867 13.6692 1.76354 13.2958C1.65398 13.0139 1.52366 12.5903 1.48809 11.8103C1.4496 10.9668 1.44144 10.7137 1.44144 8.57765C1.44144 6.44155 1.4496 6.18852 1.48809 5.34495C1.52366 4.56496 1.65398 4.14136 1.76354 3.85947C1.90867 3.48605 2.08202 3.21955 2.36198 2.93962C2.64191 2.65966 2.90841 2.4863 3.28183 2.34118C3.56373 2.23162 3.98732 2.10129 4.76732 2.06573C5.61088 2.02724 5.86392 2.01908 8.00002 2.01908Z" fill="url(#paint5_radial_233_1984)"/>
<defs>
<linearGradient id="paint0_linear_233_1984" x1="0.933549" y1="1.4188" x2="5.97821" y2="20.9322" gradientUnits="userSpaceOnUse">
<stop stop-color="#4E60D3"/>
<stop offset="0.142763" stop-color="#913BAF"/>
<stop offset="0.761458" stop-color="#D52D88"/>
<stop offset="1" stop-color="#F26D4F"/>
</linearGradient>
<radialGradient id="paint1_radial_233_1984" cx="0" cy="0" r="1" gradientUnits="userSpaceOnUse" gradientTransform="translate(4.84389 16.5776) rotate(32.1601) scale(14.9431 10.7541)">
<stop stop-color="#FED276"/>
<stop offset="0.17024" stop-color="#FDBD61" stop-opacity="0.975006"/>
<stop offset="0.454081" stop-color="#F6804D"/>
<stop offset="1" stop-color="#E83D5C" stop-opacity="0.01"/>
</radialGradient>
<linearGradient id="paint2_linear_233_1984" x1="0.933549" y1="1.4188" x2="5.97821" y2="20.9322" gradientUnits="userSpaceOnUse">
<stop stop-color="#4E60D3"/>
<stop offset="0.142763" stop-color="#913BAF"/>
<stop offset="0.761458" stop-color="#D52D88"/>
<stop offset="1" stop-color="#F26D4F"/>
</linearGradient>
<radialGradient id="paint3_radial_233_1984" cx="0" cy="0" r="1" gradientUnits="userSpaceOnUse" gradientTransform="translate(4.84389 16.5776) rotate(32.1601) scale(14.9431 10.7541)">
<stop stop-color="#FED276"/>
<stop offset="0.17024" stop-color="#FDBD61" stop-opacity="0.975006"/>
<stop offset="0.454081" stop-color="#F6804D"/>
<stop offset="1" stop-color="#E83D5C" stop-opacity="0.01"/>
</radialGradient>
<linearGradient id="paint4_linear_233_1984" x1="0.933549" y1="1.4188" x2="5.97821" y2="20.9322" gradientUnits="userSpaceOnUse">
<stop stop-color="#4E60D3"/>
<stop offset="0.142763" stop-color="#913BAF"/>
<stop offset="0.761458" stop-color="#D52D88"/>
<stop offset="1" stop-color="#F26D4F"/>
</linearGradient>
<radialGradient id="paint5_radial_233_1984" cx="0" cy="0" r="1" gradientUnits="userSpaceOnUse" gradientTransform="translate(4.84389 16.5776) rotate(32.1601) scale(14.9431 10.7541)">
<stop stop-color="#FED276"/>
<stop offset="0.17024" stop-color="#FDBD61" stop-opacity="0.975006"/>
<stop offset="0.454081" stop-color="#F6804D"/>
<stop offset="1" stop-color="#E83D5C" stop-opacity="0.01"/>
</radialGradient>
</defs>
</svg>
