<svg width="16" height="17" viewBox="0 0 16 17" fill="none" xmlns="http://www.w3.org/2000/svg">
<path d="M13.6328 14.2107H11.2621V10.498C11.2621 9.61263 11.2463 8.47294 10.029 8.47294C8.79431 8.47294 8.60539 9.43754 8.60539 10.4335V14.2104H6.23469V6.5756H8.51056V7.61897H8.54242C9.00648 6.8255 9.86935 6.35159 10.7879 6.38569C13.1907 6.38569 13.6337 7.96619 13.6337 10.0223L13.6328 14.2107ZM3.55975 5.53197C2.79995 5.53211 2.1839 4.91626 2.18376 4.15644C2.18362 3.39662 2.79946 2.78055 3.55926 2.78042C4.31906 2.78028 4.93512 3.39613 4.93525 4.15595C4.93532 4.52083 4.79044 4.87079 4.53248 5.12884C4.27452 5.3869 3.92462 5.53191 3.55975 5.53197ZM4.7451 14.2107H2.37193V6.5756H4.7451V14.2107ZM14.8147 0.57883H1.18066C0.536287 0.571558 0.00786419 1.08772 0 1.7321V15.4229C0.00759494 16.0676 0.535975 16.5843 1.18066 16.5775H14.8147C15.4606 16.5856 15.9911 16.0689 16 15.4229V1.73111C15.9908 1.08546 15.4603 0.569327 14.8147 0.577738" fill="#0A66C2"/>
</svg>
