<svg xmlns="http://www.w3.org/2000/svg" width="50" height="50" viewBox="0 0 50 50">
  <g id="community_svg" transform="translate(-8263 -5172)">
    <rect id="Rectangle_46" data-name="Rectangle 46" width="50" height="50" transform="translate(8263 5172)" fill="#00183e"/>
    <path id="Path_34" data-name="Path 34" d="M11.326,5.856c-.742.035-.968.211-1.035.974-.2,2.318-.324,5.542.847,7.7-.672.084-1.334.191-1.98.32A13.541,13.541,0,0,0,9.546,9.33c-.053-.611-.235-.752-.828-.78a4.439,4.439,0,0,1-5.885,0c-.594.028-.775.169-.828.78-.19,2.155-.29,5.289,1.216,6.93a1.925,1.925,0,0,1,.335.559c-5.1,2.922-4.713,7.646,1.17,10.292,5.725,2.574,14.824,2.574,20.549,0,5.883-2.646,6.273-7.37,1.17-10.292a1.924,1.924,0,0,1,.335-.559c1.506-1.641,1.406-4.775,1.216-6.93-.053-.611-.235-.752-.828-.78a4.439,4.439,0,0,1-5.884,0c-.594.028-.776.169-.829.78a13.527,13.527,0,0,0,.388,5.521c-.646-.129-1.308-.236-1.98-.32,1.171-2.159,1.051-5.383.847-7.7-.066-.762-.293-.938-1.034-.974a5.543,5.543,0,0,1-7.349,0ZM4.071,19.138c.185,1.432.272,2.988.5,3.8.133.474,2.279.474,2.411,0,.319-1.149.362-3.759.789-5.432A24.348,24.348,0,0,1,12.4,16.67c.634,2.053.668,5.636,1.091,7.161.166.593,2.846.593,3.012,0,.423-1.525.457-5.108,1.091-7.161a24.349,24.349,0,0,1,4.633.841c.427,1.673.47,4.283.789,5.432.133.474,2.279.474,2.411,0,.226-.817.314-2.373.5-3.8,2.842,1.891,2.317,4.161-1.575,5.912-5.123,2.3-13.585,2.3-18.708,0-3.892-1.75-4.417-4.021-1.575-5.912ZM5.775,3.86A2.417,2.417,0,1,1,3.359,6.277,2.417,2.417,0,0,1,5.775,3.86Zm18.45,0a2.417,2.417,0,1,1-2.417,2.417A2.416,2.416,0,0,1,24.225,3.86ZM15,0a3.018,3.018,0,1,1-3.018,3.018A3.018,3.018,0,0,1,15,0Z" transform="translate(8273 5182)" fill="#eeecfa" fill-rule="evenodd"/>
  </g>
</svg>
