<svg xmlns="http://www.w3.org/2000/svg" width="50" height="50" viewBox="0 0 50 50">
  <g id="idea_svg" transform="translate(-8367 -5180)">
    <rect id="Rectangle_47" data-name="Rectangle 47" width="50" height="50" transform="translate(8367 5180)" fill="#00183e"/>
    <g id="Group_27" data-name="Group 27" transform="translate(8377 5190)">
      <path id="Path_35" data-name="Path 35" d="M15.488,5.609A1.239,1.239,0,0,0,16.728,4.37V1.239a1.239,1.239,0,0,0-2.478,0V4.37A1.239,1.239,0,0,0,15.488,5.609Z" fill="#eeecfa"/>
      <path id="Path_36" data-name="Path 36" d="M8.871,7.63a1.26,1.26,0,0,0-.359-.88L6.295,4.532a1.24,1.24,0,0,0-1.761,0,1.26,1.26,0,0,0,0,1.761L6.751,8.51a1.239,1.239,0,0,0,2.12-.88Z" fill="#eeecfa"/>
      <path id="Path_37" data-name="Path 37" d="M4.37,14.249H1.239a1.239,1.239,0,1,0,0,2.478H4.37a1.239,1.239,0,1,0,0-2.478Z" fill="#eeecfa"/>
      <path id="Path_38" data-name="Path 38" d="M29.742,14.249h-3.13a1.239,1.239,0,1,0,0,2.478h3.13a1.239,1.239,0,0,0,0-2.478Z" fill="#eeecfa"/>
      <path id="Path_39" data-name="Path 39" d="M26.806,5.412a1.26,1.26,0,0,0-.359-.88,1.24,1.24,0,0,0-1.761,0L22.469,6.749A1.245,1.245,0,0,0,24.229,8.51l2.217-2.217A1.26,1.26,0,0,0,26.806,5.412Z" fill="#eeecfa"/>
      <path id="Path_40" data-name="Path 40" d="M20.252,9.521a7.71,7.71,0,0,0-4.794-1.663,6.839,6.839,0,0,0-1.826.228A7.656,7.656,0,0,0,10.8,21.619a1.479,1.479,0,0,1,.522,1.174v.978h8.315V22.728a1.421,1.421,0,0,1,.489-1.109,7.6,7.6,0,0,0,3.033-6.065A7.507,7.507,0,0,0,20.252,9.521Zm-1.63,5.413L15.557,18a1.024,1.024,0,0,1-1.435,0l-1.761-1.7a1.038,1.038,0,1,1,1.468-1.467l1.011,1.011L17.187,13.5a1.064,1.064,0,0,1,1.467,0A1,1,0,0,1,18.622,14.934Z" fill="#eeecfa"/>
      <path id="Path_41" data-name="Path 41" d="M11.35,27.391A1.1,1.1,0,0,0,12.459,28.5h1.4l.13.359a1.556,1.556,0,0,0,3,0l.131-.359h1.4a1.1,1.1,0,0,0,1.109-1.109V25.826H11.35Z" fill="#eeecfa"/>
    </g>
  </g>
</svg>
