<svg xmlns="http://www.w3.org/2000/svg" width="50" height="50" viewBox="0 0 50 50">
  <g id="growth_svg" transform="translate(-8001 -5122)">
    <rect id="Rectangle_44" data-name="Rectangle 44" width="50" height="50" transform="translate(8001 5122)" fill="#00183e"/>
    <path id="Path_31" data-name="Path 31" d="M0,20.343C12.593,17.76,21.958,5.877,21.958,5.877L19.665,4.036,27.964,0,26.382,9.042,24.251,7.427S10.624,21.538,0,20.343Zm30,7.183H23.348V10.467q.529-.482,1.043-.978l3.086,2.338,1.174-6.71H30Zm-9.477,0H13.87V17.7a57.378,57.378,0,0,0,6.652-4.781Zm-9.478,0H4.393V21.664a26,26,0,0,0,6.652-2.392Z" transform="translate(8011 5133)" fill="#eeecfa" fill-rule="evenodd"/>
  </g>
</svg>
