<svg xmlns="http://www.w3.org/2000/svg" width="50" height="50" viewBox="0 0 50 50">
  <g id="circle_svg" transform="translate(-8462 -5341)">
    <rect id="Rectangle_48" data-name="Rectangle 48" width="50" height="50" transform="translate(8462 5341)" fill="#00183e"/>
    <g id="Group_28" data-name="Group 28" transform="translate(8472 5355)">
      <path id="Path_42" data-name="Path 42" d="M25.611.5a1.773,1.773,0,0,0-2.463,0,1.773,1.773,0,0,0,0,2.463,11.512,11.512,0,0,1,0,16.295,1.773,1.773,0,0,0,0,2.463,1.753,1.753,0,0,0,2.463,0A14.86,14.86,0,0,0,30,11.139,14.9,14.9,0,0,0,25.611.5Z" fill="#eeecfa"/>
      <path id="Path_43" data-name="Path 43" d="M3.474,11.108A11.415,11.415,0,0,1,6.853,2.961,1.773,1.773,0,0,0,6.853.5,1.773,1.773,0,0,0,4.389.5a14.981,14.981,0,0,0,.032,21.221,1.754,1.754,0,0,0,2.463,0,1.744,1.744,0,0,0-.032-2.463A11.491,11.491,0,0,1,3.474,11.108Z" fill="#eeecfa"/>
      <path id="Path_44" data-name="Path 44" d="M21.253,4.887a1.742,1.742,0,0,0-2.495,2.432,5.337,5.337,0,0,1,0,7.579,1.744,1.744,0,0,0,.032,2.463,1.754,1.754,0,0,0,2.463,0,8.806,8.806,0,0,0,0-12.474Z" fill="#eeecfa"/>
      <path id="Path_45" data-name="Path 45" d="M11.211,4.855a1.773,1.773,0,0,0-2.463,0,8.844,8.844,0,0,0,0,12.505,1.754,1.754,0,0,0,2.463,0,1.773,1.773,0,0,0,0-2.463,5.337,5.337,0,0,1,0-7.579A1.716,1.716,0,0,0,11.211,4.855Z" fill="#eeecfa"/>
      <path id="Path_46" data-name="Path 46" d="M15,13.76a2.653,2.653,0,1,0-2.653-2.653A2.653,2.653,0,0,0,15,13.76Z" fill="#eeecfa"/>
    </g>
  </g>
</svg>
