<svg xmlns="http://www.w3.org/2000/svg" width="50" height="50" viewBox="0 0 50 50">
  <g id="message_svg" transform="translate(-8159 -5155)">
    <rect id="Rectangle_45" data-name="Rectangle 45" width="50" height="50" transform="translate(8159 5155)" fill="#00183e"/>
    <g id="Group_26" data-name="Group 26" transform="translate(8169 5171)">
      <path id="Path_32" data-name="Path 32" d="M29.939,17.011l-1.263-3.756A9,9,0,0,0,17.062.789a1.8,1.8,0,0,1,.253.221,11.353,11.353,0,0,1,.032,16.064l-.253.253a9.149,9.149,0,0,0,7.859-.284l3.756,1.231A.986.986,0,0,0,29.939,17.011Z" fill="#eeecfa"/>
      <path id="Path_33" data-name="Path 33" d="M15.705,2.651a9.037,9.037,0,0,0-14.392,10.6L.051,17.011a.991.991,0,0,0,1.262,1.262l3.756-1.262A9.037,9.037,0,0,0,15.705,2.651ZM9.456,14.328a1.1,1.1,0,1,1,0-2.209,1.118,1.118,0,0,1,1.1,1.1A1.078,1.078,0,0,1,9.456,14.328ZM12.17,8.648a4.749,4.749,0,0,1-1.2,1.136.983.983,0,0,0-.568.978.539.539,0,0,1-.5.473H9.109a.5.5,0,0,1-.5-.568A2.75,2.75,0,0,1,9.961,8.3a3.3,3.3,0,0,0,.789-.726,1.276,1.276,0,0,0,.095-1.262,1.462,1.462,0,0,0-1.42-.757A1.512,1.512,0,0,0,7.783,6.849a.51.51,0,0,1-.5.442H6.458a.508.508,0,0,1-.5-.6,3.332,3.332,0,0,1,3.472-3A3.334,3.334,0,0,1,12.486,5.46,3.276,3.276,0,0,1,12.17,8.648Z" fill="#eeecfa"/>
    </g>
  </g>
</svg>
