<?xml version="1.0" encoding="UTF-8"?>
<svg xmlns="http://www.w3.org/2000/svg" xmlns:xlink="http://www.w3.org/1999/xlink" width="120px" height="px" viewBox="0 0 119 24" version="1.1">
<defs>
<linearGradient id="linear0" gradientUnits="userSpaceOnUse" x1="61" y1="117" x2="259" y2="127" gradientTransform="matrix(0.125527,0,0,0.125654,0,0)">
<stop offset="0" style="stop-color:rgb(0%,39.215686%,88.235294%);stop-opacity:1;"/>
<stop offset="0.4" style="stop-color:rgb(0%,39.215686%,88.235294%);stop-opacity:1;"/>
<stop offset="0.83" style="stop-color:rgb(0%,45.098039%,93.333333%);stop-opacity:1;"/>
<stop offset="1" style="stop-color:rgb(0%,50.980392%,98.431373%);stop-opacity:1;"/>
</linearGradient>
<linearGradient id="linear1" gradientUnits="userSpaceOnUse" x1="45" y1="139" x2="45" y2="66" gradientTransform="matrix(0.125527,0,0,0.125654,0,0)">
<stop offset="0" style="stop-color:rgb(0%,50.980392%,98.431373%);stop-opacity:1;"/>
<stop offset="1" style="stop-color:rgb(0%,39.215686%,87.843137%);stop-opacity:1;"/>
</linearGradient>
</defs>
<g id="surface1">
<path style=" stroke:none;fill-rule:nonzero;fill:rgb(0%,50.588235%,98.431373%);fill-opacity:1;" d="M 3.898438 15.828125 C 3.898438 17.207031 4.203125 18.265625 4.597656 18.90625 C 5.117188 19.746094 5.886719 20.101562 6.675781 20.101562 C 7.695312 20.101562 8.625 19.851562 10.417969 17.367188 C 11.851562 15.378906 13.542969 12.585938 14.683594 10.835938 L 16.609375 7.871094 C 17.949219 5.8125 19.5 3.523438 21.277344 1.96875 C 22.730469 0.703125 24.292969 0 25.871094 0 C 28.515625 0 31.035156 1.535156 32.960938 4.410156 C 35.074219 7.5625 36.097656 11.53125 36.097656 15.628906 C 36.097656 18.0625 35.617188 19.851562 34.800781 21.265625 C 34.011719 22.632812 32.476562 24 29.890625 24 L 29.890625 20.101562 C 32.105469 20.101562 32.65625 18.066406 32.65625 15.738281 C 32.65625 12.417969 31.882812 8.734375 30.179688 6.101562 C 28.972656 4.234375 27.40625 3.09375 25.683594 3.09375 C 23.816406 3.09375 22.316406 4.5 20.632812 7.007812 C 19.734375 8.34375 18.816406 9.96875 17.78125 11.800781 L 16.644531 13.816406 C 14.359375 17.871094 13.78125 18.796875 12.640625 20.320312 C 10.636719 22.988281 8.925781 24 6.675781 24 C 4.007812 24 2.320312 22.84375 1.273438 21.097656 C 0.417969 19.675781 0 17.8125 0 15.6875 Z M 3.898438 15.828125 "/>
<path style=" stroke:none;fill-rule:nonzero;fill:url(#linear0);" d="M 3.074219 4.6875 C 4.863281 1.929688 7.441406 0 10.398438 0 C 12.113281 0 13.816406 0.507812 15.59375 1.960938 C 17.542969 3.550781 19.613281 6.167969 22.203125 10.480469 L 23.128906 12.03125 C 25.367188 15.765625 26.644531 17.6875 27.390625 18.59375 C 28.347656 19.753906 29.019531 20.101562 29.890625 20.101562 C 32.105469 20.101562 32.65625 18.066406 32.65625 15.738281 L 36.097656 15.628906 C 36.097656 18.0625 35.617188 19.851562 34.800781 21.265625 C 34.011719 22.632812 32.476562 24 29.890625 24 C 28.285156 24 26.863281 23.652344 25.289062 22.164062 C 24.078125 21.023438 22.664062 18.996094 21.574219 17.175781 L 18.335938 11.761719 C 16.710938 9.042969 15.222656 7.019531 14.359375 6.101562 C 13.433594 5.117188 12.238281 3.925781 10.335938 3.925781 C 8.796875 3.925781 7.488281 5.007812 6.394531 6.660156 Z M 3.074219 4.6875 "/>
<path style=" stroke:none;fill-rule:nonzero;fill:url(#linear1);" d="M 10.335938 3.925781 C 8.796875 3.925781 7.488281 5.007812 6.394531 6.660156 C 4.847656 9 3.898438 12.484375 3.898438 15.828125 C 3.898438 17.207031 4.203125 18.265625 4.597656 18.90625 L 1.273438 21.097656 C 0.417969 19.675781 0 17.8125 0 15.6875 C 0 11.824219 1.058594 7.796875 3.074219 4.6875 C 4.863281 1.929688 7.441406 0 10.398438 0 Z M 10.335938 3.925781 "/>
<path style=" stroke:none;fill-rule:nonzero;fill:rgb(9.803922%,15.686275%,18.823529%);fill-opacity:1;" d="M 43.675781 0.757812 L 48.1875 0.757812 L 55.855469 14.644531 L 63.523438 0.757812 L 67.9375 0.757812 L 67.9375 23.578125 L 64.257812 23.578125 L 64.257812 6.089844 L 57.53125 18.199219 L 54.078125 18.199219 L 47.355469 6.089844 L 47.355469 23.578125 L 43.675781 23.578125 Z M 79.464844 9.265625 C 76.828125 9.265625 75.238281 11.253906 74.855469 13.714844 L 83.8125 13.714844 C 83.628906 11.179688 82.167969 9.265625 79.464844 9.265625 Z M 71.210938 15.117188 C 71.210938 9.9375 74.554688 6.167969 79.527344 6.167969 C 84.421875 6.167969 87.347656 9.890625 87.347656 15.394531 L 87.347656 16.40625 L 74.855469 16.40625 C 75.300781 19.085938 77.074219 20.890625 79.9375 20.890625 C 82.21875 20.890625 83.648438 20.191406 85 18.917969 L 86.957031 21.3125 C 85.113281 23.007812 82.773438 23.984375 79.804688 23.984375 C 74.421875 23.984375 71.210938 20.054688 71.210938 15.117188 Z M 91.808594 9.59375 L 88.421875 9.59375 L 88.421875 6.578125 L 91.808594 6.578125 L 91.808594 1.589844 L 95.355469 1.589844 L 95.355469 6.578125 L 100.503906 6.578125 L 100.503906 9.59375 L 95.355469 9.59375 L 95.355469 17.238281 C 95.355469 19.847656 96.191406 20.773438 98.238281 20.773438 C 99.175781 20.773438 99.710938 20.695312 100.503906 20.5625 L 100.503906 23.546875 C 99.515625 23.824219 98.574219 23.953125 97.554688 23.953125 C 93.722656 23.953125 91.808594 21.855469 91.808594 17.660156 Z M 115.449219 12.527344 C 114.738281 10.722656 113.148438 9.398438 110.808594 9.398438 C 107.773438 9.398438 105.828125 11.554688 105.828125 15.070312 C 105.828125 18.496094 107.617188 20.757812 110.664062 20.757812 C 113.058594 20.757812 114.769531 19.363281 115.449219 17.628906 Z M 119 23.578125 L 115.515625 23.578125 L 115.515625 21.199219 C 114.542969 22.597656 112.769531 23.984375 109.898438 23.984375 C 105.28125 23.984375 102.195312 20.117188 102.195312 15.070312 C 102.195312 9.976562 105.355469 6.167969 110.09375 6.167969 C 112.4375 6.167969 114.273438 7.105469 115.515625 8.761719 L 115.515625 6.578125 L 119 6.578125 Z M 119 23.578125 "/>
</g>
</svg>
