<?xml version="1.0" encoding="UTF-8"?>
<svg xmlns="http://www.w3.org/2000/svg" xmlns:xlink="http://www.w3.org/1999/xlink" width="120px" height="px" viewBox="0 0 119 65" version="1.1">
<defs>
<clipPath id="clip1">
  <path d="M 0 0 L 118.285156 0 L 118.285156 65 L 0 65 Z M 0 0 "/>
</clipPath>
</defs>
<g id="surface1">
<g clip-path="url(#clip1)" clip-rule="nonzero">
<path style=" stroke:none;fill-rule:nonzero;fill:rgb(0%,0%,0%);fill-opacity:1;" d="M 21.074219 50.550781 L 10.429688 50.550781 L 10.429688 16 L 0 16 L 0 8.464844 C 2.882812 8.535156 5.714844 7.679688 8.082031 6.027344 C 10.113281 4.609375 11.503906 2.445312 11.949219 0 L 21.074219 0 Z M 36.277344 50.550781 L 25.867188 50.550781 L 25.867188 16 L 35.722656 16 L 35.722656 19.882812 C 36.609375 18.15625 38.058594 16.785156 39.824219 16 C 41.585938 15.066406 43.550781 14.582031 45.542969 14.589844 C 47.550781 14.402344 49.570312 14.816406 51.34375 15.785156 C 53.113281 16.75 54.5625 18.226562 55.5 20.023438 C 56.65625 18.292969 58.230469 16.890625 60.074219 15.941406 C 61.921875 14.988281 63.972656 14.527344 66.046875 14.589844 C 69.328125 14.542969 72.511719 15.722656 74.976562 17.902344 C 76.308594 19.234375 77.34375 20.839844 78.007812 22.605469 C 78.675781 24.375 78.960938 26.265625 78.839844 28.152344 L 78.839844 50.492188 L 68.648438 50.492188 L 68.648438 30.667969 C 68.738281 29.140625 68.253906 27.632812 67.289062 26.445312 C 66.78125 25.890625 66.160156 25.457031 65.46875 25.167969 C 64.777344 24.882812 64.03125 24.75 63.285156 24.78125 C 62.515625 24.734375 61.746094 24.859375 61.03125 25.148438 C 60.316406 25.433594 59.671875 25.878906 59.144531 26.445312 C 58.1875 27.621094 57.660156 29.089844 57.648438 30.609375 L 57.648438 50.433594 L 47.316406 50.433594 L 47.316406 30.609375 C 47.410156 29.0625 46.949219 27.539062 46.015625 26.308594 C 45.492188 25.753906 44.859375 25.320312 44.152344 25.035156 C 43.449219 24.75 42.691406 24.625 41.933594 24.660156 C 41.15625 24.625 40.378906 24.765625 39.660156 25.074219 C 38.941406 25.382812 38.304688 25.851562 37.792969 26.445312 C 36.808594 27.625 36.296875 29.128906 36.355469 30.667969 Z M 82.644531 52.714844 L 91.992188 50.136719 C 92.292969 51.765625 93.1875 53.226562 94.496094 54.238281 C 95.875 55.382812 97.640625 55.953125 99.421875 55.824219 C 105.140625 55.824219 107.980469 52.078125 107.980469 46.25 L 107.980469 44.148438 C 106.882812 45.507812 105.46875 46.574219 103.859375 47.253906 C 102.253906 47.929688 100.507812 48.199219 98.773438 48.035156 C 96.644531 48.09375 94.527344 47.699219 92.5625 46.878906 C 90.59375 46.058594 88.820312 44.832031 87.359375 43.277344 C 84.324219 40.050781 82.683594 35.742188 82.804688 31.300781 C 82.746094 29.125 83.117188 26.957031 83.898438 24.925781 C 84.683594 22.894531 85.855469 21.039062 87.359375 19.46875 C 88.761719 17.871094 90.488281 16.597656 92.425781 15.734375 C 94.359375 14.867188 96.457031 14.429688 98.574219 14.453125 C 100.863281 14.363281 103.128906 14.898438 105.140625 16 C 106.503906 16.65625 107.664062 17.679688 108.492188 18.953125 L 108.492188 15.144531 L 118.269531 15.144531 L 118.269531 45.734375 C 118.453125 50.816406 116.800781 55.796875 113.617188 59.75 C 111.84375 61.578125 109.691406 62.988281 107.3125 63.886719 C 104.933594 64.785156 102.390625 65.144531 99.855469 64.945312 C 95.660156 65.144531 91.519531 63.890625 88.125 61.394531 C 85.261719 59.3125 83.300781 56.207031 82.644531 52.714844 Z M 95.261719 36.773438 C 95.957031 37.484375 96.789062 38.042969 97.710938 38.414062 C 98.628906 38.78125 99.617188 38.953125 100.605469 38.914062 C 101.585938 38.980469 102.5625 38.820312 103.472656 38.449219 C 104.378906 38.078125 105.191406 37.503906 105.851562 36.773438 C 106.558594 36.0625 107.109375 35.207031 107.464844 34.261719 C 107.816406 33.316406 107.96875 32.308594 107.902344 31.300781 C 107.941406 30.316406 107.78125 29.332031 107.429688 28.40625 C 107.082031 27.484375 106.550781 26.640625 105.871094 25.929688 C 105.1875 25.21875 104.371094 24.65625 103.464844 24.269531 C 102.5625 23.882812 101.589844 23.6875 100.605469 23.691406 C 99.585938 23.726562 98.585938 23.96875 97.660156 24.398438 C 96.730469 24.828125 95.898438 25.441406 95.210938 26.195312 C 94.519531 26.953125 93.988281 27.839844 93.640625 28.804688 C 93.292969 29.769531 93.144531 30.792969 93.195312 31.816406 C 93.257812 33.667969 93.992188 35.433594 95.261719 36.773438 Z M 10.980469 64.863281 L 82.191406 64.863281 L 82.191406 54.578125 L 10.980469 54.578125 Z M 25.867188 10.328125 L 118.191406 10.328125 L 118.191406 0 L 25.867188 0 Z M 25.867188 10.328125 "/>
</g>
</g>
</svg>
