<svg width="16" height="17" viewBox="0 0 16 17" fill="none" xmlns="http://www.w3.org/2000/svg">
<path fill-rule="evenodd" clip-rule="evenodd" d="M8.89706 13.0096C8.59277 13.0874 8.28499 13.1177 7.98759 13.1177C6.4065 13.1177 4.51306 12.4081 4.51306 7.97936C4.51306 3.55167 6.49605 2.32905 8.07726 2.32905C9.65812 2.32905 11.4967 3.38265 11.4967 7.81082C11.4967 9.81814 11.1038 11.0948 10.5258 11.892C10.5172 11.8924 10.5099 11.8903 10.5099 11.8903C9.19516 10.1274 7.48913 10.5499 7.07999 10.7414C7.07999 10.7414 7.13218 11.1457 7.24042 11.8806C8.14288 11.8803 8.58974 12.3666 8.90185 12.9947C8.89881 13.0016 8.89706 13.0096 8.89706 13.0096ZM11.4678 13.8562C11.4678 13.8562 11.4695 13.851 11.4713 13.8455C13.3925 12.6075 14.6771 10.349 14.6771 7.64289C14.6771 2.42952 11.4283 0.577637 8.03208 0.577637C4.8268 0.577637 1.34375 3.19445 1.34375 7.74335C1.34375 12.9568 4.59188 14.8688 7.98969 14.8688C8.52365 14.8688 9.04278 14.8022 9.54089 14.6788C9.54089 14.6788 9.54837 14.6813 9.55304 14.682C10.8917 17.1677 12.8853 16.5662 13.3997 16.3701C13.3997 16.3701 13.3307 15.9327 13.21 15.1186C12.2482 15.093 11.8196 14.5913 11.4678 13.8562Z" fill="#B92B27"/>
</svg>
