<svg width="16" height="17" viewBox="0 0 16 17" fill="none" xmlns="http://www.w3.org/2000/svg">
<path d="M8 16.5776C12.4183 16.5776 16 12.9959 16 8.57764C16 4.15936 12.4183 0.577637 8 0.577637C3.58172 0.577637 0 4.15936 0 8.57764C0 12.9959 3.58172 16.5776 8 16.5776Z" fill="url(#paint0_linear_233_1988)"/>
<path fill-rule="evenodd" clip-rule="evenodd" d="M3.62069 8.4936C5.95285 7.47751 7.508 6.80764 8.28611 6.484C10.5078 5.55992 10.9694 5.3994 11.2703 5.3941C11.3365 5.39293 11.4845 5.40933 11.5803 5.48711C11.6613 5.55278 11.6835 5.6415 11.6942 5.70376C11.7049 5.76602 11.7181 5.90786 11.7076 6.01869C11.5872 7.28368 11.0662 10.3535 10.8012 11.7703C10.6891 12.3698 10.4683 12.5708 10.2545 12.5905C9.78991 12.6332 9.43714 12.2835 8.98717 11.9885C8.28307 11.5269 7.88529 11.2396 7.20184 10.7892C6.41199 10.2687 6.92402 9.98267 7.37415 9.51514C7.49195 9.39279 9.53888 7.53095 9.5785 7.36205C9.58345 7.34093 9.58805 7.26219 9.54127 7.22061C9.4945 7.17903 9.42546 7.19325 9.37564 7.20456C9.30502 7.22059 8.1802 7.96405 6.00119 9.43494C5.68192 9.65418 5.39273 9.761 5.13362 9.7554C4.84798 9.74923 4.29852 9.5939 3.89006 9.46112C3.38905 9.29827 2.99087 9.21216 3.02554 8.93558C3.0436 8.79152 3.24199 8.6442 3.62069 8.4936Z" fill="white"/>
<defs>
<linearGradient id="paint0_linear_233_1988" x1="8" y1="0.577637" x2="8" y2="16.459" gradientUnits="userSpaceOnUse">
<stop stop-color="#2AABEE"/>
<stop offset="1" stop-color="#229ED9"/>
</linearGradient>
</defs>
</svg>
