<svg width="16" height="17" viewBox="0 0 16 17" fill="none" xmlns="http://www.w3.org/2000/svg">
<path fill-rule="evenodd" clip-rule="evenodd" d="M14.2511 3.31815C14.9395 3.50214 15.4816 4.04436 15.6656 4.73265C16 5.98054 16 8.58379 16 8.58379C16 8.58379 16 11.1872 15.6656 12.4349C15.4816 13.1232 14.9395 13.6656 14.2511 13.8494C13.0033 14.1838 7.99993 14.1838 7.99993 14.1838C7.99993 14.1838 2.99665 14.1838 1.74889 13.8494C1.06048 13.6656 0.518385 13.1232 0.334395 12.4349C0 11.1872 0 8.58379 0 8.58379C0 8.58379 0 5.98054 0.334395 4.73265C0.518385 4.04436 1.06048 3.50214 1.74889 3.31815C2.99665 2.98389 7.99993 2.98389 7.99993 2.98389C7.99993 2.98389 13.0033 2.98389 14.2511 3.31815ZM10.5567 8.58392L6.40001 10.9838V6.18376L10.5567 8.58392Z" fill="#FF0000"/>
</svg>
